# 3ds Max Wavefront OBJ Exporter v0.97b - (c)2007 guruware
# File Created: 10.12.2017 14:04:54

mtllib bottle.mtl

#
# object Object001
#

v  -296.3188 -559.5552 -305.0966
v  -304.4600 -550.2395 -298.4840
v  -303.0371 -550.2395 -294.7938
v  -292.5640 -559.5552 -295.3582
v  -305.0807 -559.5552 -310.7682
v  -307.7803 -550.2395 -300.6331
v  -315.5028 -559.5552 -310.2065
v  -311.7296 -550.2395 -300.4203
v  -323.6043 -559.5552 -303.6260
v  -314.7996 -550.2395 -297.9267
v  -326.2907 -559.5552 -293.5404
v  -315.8176 -550.2395 -294.1049
v  -322.5358 -559.5552 -283.8020
v  -314.3947 -550.2395 -290.4146
v  -313.7740 -559.5552 -278.1304
v  -311.0745 -550.2395 -288.2655
v  -303.3518 -559.5552 -278.6922
v  -307.1251 -550.2395 -288.4784
v  -295.2503 -559.5552 -285.2726
v  -304.0551 -550.2395 -290.9719
v  -296.3188 -570.5296 -305.0966
v  -292.5640 -570.5296 -295.3582
v  -305.0807 -570.5296 -310.7682
v  -315.5028 -570.5296 -310.2065
v  -323.6043 -570.5296 -303.6260
v  -326.2907 -570.5296 -293.5404
v  -322.5358 -570.5296 -283.8020
v  -313.7740 -570.5296 -278.1304
v  -303.3518 -570.5296 -278.6922
v  -295.2503 -570.5296 -285.2726
v  -301.3258 -579.4081 -301.0297
v  -299.0052 -579.4081 -295.0111
v  -306.7410 -579.4081 -304.5349
v  -313.1822 -579.4081 -304.1877
v  -318.1892 -579.4081 -300.1208
v  -319.8495 -579.4081 -293.8876
v  -317.5288 -579.4081 -287.8689
v  -312.1137 -579.4081 -284.3637
v  -305.6725 -579.4081 -284.7109
v  -300.6655 -579.4081 -288.7779
v  -304.4600 -533.2261 -298.4840
v  -303.0371 -533.2261 -294.7938
v  -307.7803 -533.2261 -300.6331
v  -311.7296 -533.2261 -300.4203
v  -314.7996 -533.2261 -297.9267
v  -315.8176 -533.2261 -294.1049
v  -314.3947 -533.2261 -290.4146
v  -311.0745 -533.2261 -288.2655
v  -307.1251 -533.2261 -288.4784
v  -304.0551 -533.2261 -290.9719
v  -302.1531 -529.4439 -300.3577
v  -300.0695 -529.4439 -294.9537
v  -307.0153 -529.4439 -303.5050
v  -312.7988 -529.4439 -303.1933
v  -317.2944 -529.4439 -299.5416
v  -318.7851 -529.4439 -293.9449
v  -316.7015 -529.4439 -288.5409
v  -311.8394 -529.4439 -285.3936
v  -306.0559 -529.4439 -285.7054
v  -301.5602 -529.4439 -289.3570
v  -302.1502 -527.7650 -300.3602
v  -300.0657 -527.7650 -294.9539
v  -307.0143 -527.7650 -303.5087
v  -312.8002 -527.7650 -303.1969
v  -317.2977 -527.7650 -299.5438
v  -318.7891 -527.7650 -293.9447
v  -316.7045 -527.7650 -288.5385
v  -311.8403 -527.7650 -285.3899
v  -306.0545 -527.7650 -285.7018
v  -301.5571 -527.7650 -289.3549
v  -305.1864 -527.7619 -297.8940
v  -303.9717 -527.7619 -294.7434
v  -308.0212 -527.7619 -299.7289
v  -311.3929 -527.7619 -299.5471
v  -314.0139 -527.7619 -297.4182
v  -314.8830 -527.7619 -294.1553
v  -313.6682 -527.7619 -291.0047
v  -310.8336 -527.7619 -289.1698
v  -307.4619 -527.7619 -289.3515
v  -304.8408 -527.7619 -291.4805
v  -304.0652 -521.8001 -298.8046
v  -302.5293 -521.8001 -294.8211
v  -307.6493 -521.8001 -301.1246
v  -311.9125 -521.8001 -300.8948
v  -315.2265 -521.8001 -298.2030
v  -316.3254 -521.8001 -294.0775
v  -314.7894 -521.8001 -290.0940
v  -311.2054 -521.8001 -287.7740
v  -306.9421 -521.8001 -288.0038
v  -303.6282 -521.8001 -290.6956
v  -303.8458 -515.8395 -298.9830
v  -302.2469 -515.8395 -294.8363
v  -307.5766 -515.8395 -301.3979
v  -312.0143 -515.8395 -301.1587
v  -315.4639 -515.8395 -298.3568
v  -316.6078 -515.8395 -294.0623
v  -315.0090 -515.8395 -289.9156
v  -311.2782 -515.8395 -287.5007
v  -306.8405 -515.8395 -287.7399
v  -303.3908 -515.8395 -290.5419
v  -309.4273 -582.7994 -294.4493
# 101 vertices

vn 0.7172 0.3824 -0.5826
vn 0.6957 0.4434 -0.5651
vn 0.8950 0.4434 -0.0482
vn 0.9227 0.3824 -0.0497
vn 0.2378 0.3824 -0.8929
vn 0.2307 0.4434 -0.8661
vn -0.3324 0.3824 -0.8621
vn -0.3225 0.4434 -0.8363
vn -0.7757 0.3824 -0.5021
vn -0.7524 0.4434 -0.4870
vn -0.9227 0.3824 0.0497
vn -0.8950 0.4434 0.0482
vn -0.7172 0.3824 0.5826
vn -0.6957 0.4434 0.5651
vn -0.2378 0.3824 0.8929
vn -0.2307 0.4434 0.8661
vn 0.3324 0.3824 0.8621
vn 0.3224 0.4434 0.8363
vn 0.7757 0.3824 0.5021
vn 0.7524 0.4434 0.4871
vn 0.7423 -0.2925 -0.6029
vn 0.9549 -0.2925 -0.0515
vn 0.2461 -0.2925 -0.9241
vn -0.3440 -0.2925 -0.8922
vn -0.8028 -0.2925 -0.5196
vn -0.9549 -0.2925 0.0515
vn -0.7423 -0.2925 0.6029
vn -0.2461 -0.2925 0.9241
vn 0.3440 -0.2925 0.8922
vn 0.8028 -0.2925 0.5196
vn 0.4037 -0.8541 -0.3279
vn 0.6243 -0.7804 -0.0337
vn 0.1609 -0.7804 -0.6042
vn -0.1871 -0.8541 -0.4852
vn -0.5249 -0.7804 -0.3397
vn -0.5193 -0.8541 0.0280
vn -0.4853 -0.7804 0.3942
vn -0.1338 -0.8541 0.5025
vn 0.2249 -0.7804 0.5834
vn 0.4366 -0.8541 0.2826
vn 0.7275 -0.3486 -0.5909
vn 0.9359 -0.3486 -0.0504
vn 0.2412 -0.3486 -0.9057
vn -0.3372 -0.3486 -0.8745
vn -0.7868 -0.3486 -0.5093
vn -0.9359 -0.3486 0.0504
vn -0.7275 -0.3486 0.5909
vn -0.2412 -0.3486 0.9057
vn 0.3372 -0.3486 0.8745
vn 0.7868 -0.3486 0.5093
vn 0.7381 -0.3096 -0.5995
vn 0.9495 -0.3096 -0.0512
vn 0.2447 -0.3096 -0.9188
vn -0.3421 -0.3096 -0.8872
vn -0.7982 -0.3096 -0.5167
vn -0.9495 -0.3097 0.0512
vn -0.7381 -0.3096 0.5995
vn -0.2447 -0.3096 0.9188
vn 0.3421 -0.3096 0.8872
vn 0.7982 -0.3096 0.5167
vn 0.5947 0.6426 -0.4831
vn 0.7651 0.6426 -0.0412
vn 0.1972 0.6426 -0.7404
vn -0.2757 0.6426 -0.7149
vn -0.6432 0.6426 -0.4163
vn -0.7651 0.6426 0.0412
vn -0.5947 0.6426 0.4831
vn -0.1972 0.6426 0.7404
vn 0.2757 0.6426 0.7149
vn 0.6432 0.6426 0.4163
vn 0.5505 0.7051 -0.4471
vn 0.7081 0.7050 -0.0382
vn 0.1825 0.7050 -0.6853
vn -0.2551 0.7050 -0.6617
vn -0.5953 0.7050 -0.3854
vn -0.7081 0.7050 0.0382
vn -0.5505 0.7050 0.4471
vn -0.1825 0.7050 0.6853
vn 0.2551 0.7050 0.6617
vn 0.5953 0.7050 0.3853
vn 0.7686 -0.1395 -0.6243
vn 0.9888 -0.1395 -0.0533
vn 0.2549 -0.1395 -0.9569
vn -0.3562 -0.1395 -0.9239
vn -0.8313 -0.1395 -0.5381
vn -0.9888 -0.1395 0.0533
vn -0.7686 -0.1395 0.6243
vn -0.2549 -0.1395 0.9569
vn 0.3562 -0.1395 0.9239
vn 0.8313 -0.1395 0.5381
vn 0.6054 0.6259 -0.4917
vn 0.7788 0.6259 -0.0420
vn 0.2007 0.6259 -0.7536
vn -0.2806 0.6259 -0.7277
vn -0.6547 0.6259 -0.4238
vn -0.7788 0.6259 0.0420
vn -0.6054 0.6259 0.4917
vn -0.2007 0.6259 0.7536
vn 0.2806 0.6259 0.7277
vn 0.6547 0.6259 0.4238
vn 0.0000 -1.0000 -0.0000
# 101 vertex normals

vt 0.5500 0.4771 0.0000
vt 0.5347 0.5075 0.0000
vt 0.5253 0.5053 0.0000
vt 0.5253 0.4713 0.0000
vt 0.5694 0.4934 0.0000
vt 0.5420 0.5137 0.0000
vt 0.5794 0.5167 0.0000
vt 0.5458 0.5226 0.0000
vt 0.5778 0.5420 0.0000
vt 0.5452 0.5322 0.0000
vt 0.5651 0.5639 0.0000
vt 0.5404 0.5405 0.0000
vt 0.4728 0.5420 0.0000
vt 0.5054 0.5322 0.0000
vt 0.5103 0.5405 0.0000
vt 0.4856 0.5639 0.0000
vt 0.4713 0.5167 0.0000
vt 0.5048 0.5226 0.0000
vt 0.4812 0.4934 0.0000
vt 0.5086 0.5137 0.0000
vt 0.5006 0.4771 0.0000
vt 0.5160 0.5075 0.0000
vt 0.5028 0.1972 0.0000
vt 0.4762 0.1972 0.0000
vt 0.4762 0.1718 0.0000
vt 0.5028 0.1718 0.0000
vt 0.5028 0.2225 0.0000
vt 0.4762 0.2225 0.0000
vt 0.5028 0.2479 0.0000
vt 0.4762 0.2479 0.0000
vt 0.5028 0.2732 0.0000
vt 0.4762 0.2732 0.0000
vt 0.5028 0.2986 0.0000
vt 0.4762 0.2986 0.0000
vt 0.5028 0.0704 0.0000
vt 0.4762 0.0704 0.0000
vt 0.4762 0.0451 0.0000
vt 0.5028 0.0451 0.0000
vt 0.5028 0.0958 0.0000
vt 0.4762 0.0958 0.0000
vt 0.5028 0.1211 0.0000
vt 0.4762 0.1211 0.0000
vt 0.5028 0.1465 0.0000
vt 0.4762 0.1465 0.0000
vt 0.4864 0.3340 0.0000
vt 0.4772 0.3090 0.0000
vt 0.5022 0.3047 0.0000
vt 0.5018 0.3314 0.0000
vt 0.4729 0.3420 0.0000
vt 0.4554 0.3220 0.0000
vt 0.4632 0.3543 0.0000
vt 0.4397 0.3419 0.0000
vt 0.4585 0.3693 0.0000
vt 0.4321 0.3660 0.0000
vt 0.4595 0.3849 0.0000
vt 0.4336 0.3913 0.0000
vt 0.5443 0.3703 0.0000
vt 0.5708 0.3677 0.0000
vt 0.5686 0.3929 0.0000
vt 0.5429 0.3859 0.0000
vt 0.5399 0.3552 0.0000
vt 0.5638 0.3433 0.0000
vt 0.5305 0.3427 0.0000
vt 0.5485 0.3231 0.0000
vt 0.5172 0.3344 0.0000
vt 0.5270 0.3096 0.0000
vt 0.8214 0.9135 0.0000
vt 0.8141 0.9140 0.0000
vt 0.8076 0.8763 0.0000
vt 0.8199 0.8749 0.0000
vt 0.8070 0.9154 0.0000
vt 0.7956 0.8793 0.0000
vt 0.8001 0.9178 0.0000
vt 0.7840 0.8841 0.0000
vt 0.7935 0.9211 0.0000
vt 0.7733 0.8903 0.0000
vt 0.7871 0.9255 0.0000
vt 0.7643 0.8979 0.0000
vt 0.8581 0.9242 0.0000
vt 0.8498 0.9203 0.0000
vt 0.8660 0.8838 0.0000
vt 0.8748 0.8886 0.0000
vt 0.8428 0.9174 0.0000
vt 0.8554 0.8797 0.0000
vt 0.8358 0.9153 0.0000
vt 0.8441 0.8768 0.0000
vt 0.8287 0.9139 0.0000
vt 0.8321 0.8751 0.0000
vt 0.8054 0.8634 0.0000
vt 0.8194 0.8620 0.0000
vt 0.7915 0.8667 0.0000
vt 0.7781 0.8720 0.0000
vt 0.7655 0.8792 0.0000
vt 0.7531 0.8890 0.0000
vt 0.8711 0.8737 0.0000
vt 0.8819 0.8805 0.0000
vt 0.8593 0.8685 0.0000
vt 0.8467 0.8647 0.0000
vt 0.8333 0.8625 0.0000
vt 0.8048 0.8596 0.0000
vt 0.8193 0.8582 0.0000
vt 0.7904 0.8630 0.0000
vt 0.7765 0.8684 0.0000
vt 0.7634 0.8760 0.0000
vt 0.7505 0.8852 0.0000
vt 0.8727 0.8706 0.0000
vt 0.8840 0.8771 0.0000
vt 0.8606 0.8652 0.0000
vt 0.8476 0.8612 0.0000
vt 0.8337 0.8588 0.0000
vt 0.9533 0.0409 0.0000
vt 0.9419 0.0492 0.0000
vt 0.9390 0.0402 0.0000
vt 0.9456 0.0354 0.0000
vt 0.9279 0.0492 0.0000
vt 0.9308 0.0402 0.0000
vt 0.9165 0.0409 0.0000
vt 0.9242 0.0354 0.0000
vt 0.9121 0.0276 0.0000
vt 0.9216 0.0276 0.0000
vt 0.9165 0.0142 0.0000
vt 0.9242 0.0198 0.0000
vt 0.9279 0.0059 0.0000
vt 0.9308 0.0149 0.0000
vt 0.9419 0.0059 0.0000
vt 0.9390 0.0149 0.0000
vt 0.9533 0.0142 0.0000
vt 0.9456 0.0198 0.0000
vt 0.9577 0.0276 0.0000
vt 0.9482 0.0276 0.0000
vt 0.6135 0.4193 0.0000
vt 0.6132 0.4278 0.0000
vt 0.5983 0.4278 0.0000
vt 0.5988 0.4179 0.0000
vt 0.6136 0.4364 0.0000
vt 0.5987 0.4376 0.0000
vt 0.6148 0.4450 0.0000
vt 0.5999 0.4475 0.0000
vt 0.6167 0.4535 0.0000
vt 0.6018 0.4573 0.0000
vt 0.6194 0.4618 0.0000
vt 0.6046 0.4673 0.0000
vt 0.6267 0.3798 0.0000
vt 0.6224 0.3869 0.0000
vt 0.6094 0.3801 0.0000
vt 0.6145 0.3711 0.0000
vt 0.6191 0.3945 0.0000
vt 0.6053 0.3892 0.0000
vt 0.6165 0.4026 0.0000
vt 0.6023 0.3986 0.0000
vt 0.6146 0.4109 0.0000
vt 0.6001 0.4082 0.0000
vt 0.5839 0.4277 0.0000
vt 0.5844 0.4166 0.0000
vt 0.5844 0.4387 0.0000
vt 0.5857 0.4497 0.0000
vt 0.5879 0.4605 0.0000
vt 0.5905 0.4710 0.0000
vt 0.5960 0.3736 0.0000
vt 0.6013 0.3635 0.0000
vt 0.5917 0.3840 0.0000
vt 0.5883 0.3947 0.0000
vt 0.5859 0.4056 0.0000
vt 0.3782 0.0650 0.0000
vt 0.3832 0.0497 0.0000
vt 0.4042 0.0650 0.0000
vt 0.3832 0.0803 0.0000
vt 0.3962 0.0898 0.0000
vt 0.4123 0.0898 0.0000
vt 0.4253 0.0803 0.0000
vt 0.4303 0.0650 0.0000
vt 0.4253 0.0497 0.0000
vt 0.4123 0.0402 0.0000
vt 0.3962 0.0402 0.0000
vt 0.5627 0.0402 0.0000
vt 0.5714 0.0465 0.0000
vt 0.5398 0.0568 0.0000
vt 0.5432 0.0465 0.0000
vt 0.5519 0.0402 0.0000
vt 0.5748 0.0568 0.0000
vt 0.5432 0.0671 0.0000
vt 0.5714 0.0671 0.0000
vt 0.5519 0.0734 0.0000
vt 0.5627 0.0734 0.0000
# 184 texture coords

o Object001
g Object001
usemtl wire_134006006
s off
f 1/1/1 2/2/2 3/3/3 4/4/4 
f 5/5/5 6/6/6 2/2/2 1/1/1 
f 7/7/7 8/8/8 6/6/6 5/5/5 
f 9/9/9 10/10/10 8/8/8 7/7/7 
f 11/11/11 12/12/12 10/10/10 9/9/9 
f 13/13/13 14/14/14 12/15/12 11/16/11 
f 15/17/15 16/18/16 14/14/14 13/13/13 
f 17/19/17 18/20/18 16/18/16 15/17/15 
f 19/21/19 20/22/20 18/20/18 17/19/17 
f 4/4/4 3/3/3 20/22/20 19/21/19 
f 21/23/21 1/24/1 4/25/4 22/26/22 
f 23/27/23 5/28/5 1/24/1 21/23/21 
f 24/29/24 7/30/7 5/28/5 23/27/23 
f 25/31/25 9/32/9 7/30/7 24/29/24 
f 26/33/26 11/34/11 9/32/9 25/31/25 
f 27/35/27 13/36/13 11/37/11 26/38/26 
f 28/39/28 15/40/15 13/36/13 27/35/27 
f 29/41/29 17/42/17 15/40/15 28/39/28 
f 30/43/30 19/44/19 17/42/17 29/41/29 
f 22/26/22 4/25/4 19/44/19 30/43/30 
f 31/45/31 21/46/21 22/47/22 32/48/32 
f 33/49/33 23/50/23 21/46/21 31/45/31 
f 34/51/34 24/52/24 23/50/23 33/49/33 
f 35/53/35 25/54/25 24/52/24 34/51/34 
f 36/55/36 26/56/26 25/54/25 35/53/35 
f 37/57/37 27/58/27 26/59/26 36/60/36 
f 38/61/38 28/62/28 27/58/27 37/57/37 
f 39/63/39 29/64/29 28/62/28 38/61/38 
f 40/65/40 30/66/30 29/64/29 39/63/39 
f 32/48/32 22/47/22 30/66/30 40/65/40 
f 3/67/3 2/68/2 41/69/41 42/70/42 
f 2/68/2 6/71/6 43/72/43 41/69/41 
f 6/71/6 8/73/8 44/74/44 43/72/43 
f 8/73/8 10/75/10 45/76/45 44/74/44 
f 10/75/10 12/77/12 46/78/46 45/76/45 
f 12/79/12 14/80/14 47/81/47 46/82/46 
f 14/80/14 16/83/16 48/84/48 47/81/47 
f 16/83/16 18/85/18 49/86/49 48/84/48 
f 18/85/18 20/87/20 50/88/50 49/86/49 
f 20/87/20 3/67/3 42/70/42 50/88/50 
f 42/70/42 41/69/41 51/89/51 52/90/52 
f 41/69/41 43/72/43 53/91/53 51/89/51 
f 43/72/43 44/74/44 54/92/54 53/91/53 
f 44/74/44 45/76/45 55/93/55 54/92/54 
f 45/76/45 46/78/46 56/94/56 55/93/55 
f 46/82/46 47/81/47 57/95/57 56/96/56 
f 47/81/47 48/84/48 58/97/58 57/95/57 
f 48/84/48 49/86/49 59/98/59 58/97/58 
f 49/86/49 50/88/50 60/99/60 59/98/59 
f 50/88/50 42/70/42 52/90/52 60/99/60 
f 52/90/52 51/89/51 61/100/61 62/101/62 
f 51/89/51 53/91/53 63/102/63 61/100/61 
f 53/91/53 54/92/54 64/103/64 63/102/63 
f 54/92/54 55/93/55 65/104/65 64/103/64 
f 55/93/55 56/94/56 66/105/66 65/104/65 
f 56/96/56 57/95/57 67/106/67 66/107/66 
f 57/95/57 58/97/58 68/108/68 67/106/67 
f 58/97/58 59/98/59 69/109/69 68/108/68 
f 59/98/59 60/99/60 70/110/70 69/109/69 
f 60/99/60 52/90/52 62/101/62 70/110/70 
f 62/111/62 61/112/61 71/113/71 72/114/72 
f 61/112/61 63/115/63 73/116/73 71/113/71 
f 63/115/63 64/117/64 74/118/74 73/116/73 
f 64/117/64 65/119/65 75/120/75 74/118/74 
f 65/119/65 66/121/66 76/122/76 75/120/75 
f 66/121/66 67/123/67 77/124/77 76/122/76 
f 67/123/67 68/125/68 78/126/78 77/124/77 
f 68/125/68 69/127/69 79/128/79 78/126/78 
f 69/127/69 70/129/70 80/130/80 79/128/79 
f 70/129/70 62/111/62 72/114/72 80/130/80 
f 72/131/72 71/132/71 81/133/81 82/134/82 
f 71/132/71 73/135/73 83/136/83 81/133/81 
f 73/135/73 74/137/74 84/138/84 83/136/83 
f 74/137/74 75/139/75 85/140/85 84/138/84 
f 75/139/75 76/141/76 86/142/86 85/140/85 
f 76/143/76 77/144/77 87/145/87 86/146/86 
f 77/144/77 78/147/78 88/148/88 87/145/87 
f 78/147/78 79/149/79 89/150/89 88/148/88 
f 79/149/79 80/151/80 90/152/90 89/150/89 
f 80/151/80 72/131/72 82/134/82 90/152/90 
f 82/134/82 81/133/81 91/153/91 92/154/92 
f 81/133/81 83/136/83 93/155/93 91/153/91 
f 83/136/83 84/138/84 94/156/94 93/155/93 
f 84/138/84 85/140/85 95/157/95 94/156/94 
f 85/140/85 86/142/86 96/158/96 95/157/95 
f 86/146/86 87/145/87 97/159/97 96/160/96 
f 87/145/87 88/148/88 98/161/98 97/159/97 
f 88/148/88 89/150/89 99/162/99 98/161/98 
f 89/150/89 90/152/90 100/163/100 99/162/99 
f 90/152/90 82/134/82 92/154/92 100/163/100 
f 31/164/31 32/165/32 101/166/101 33/167/33 
f 34/168/34 33/167/33 101/166/101 35/169/35 
f 36/170/36 35/169/35 101/166/101 37/171/37 
f 38/172/38 37/171/37 101/166/101 39/173/39 
f 40/174/40 39/173/39 101/166/101 32/165/32 
f 95/175/95 96/176/96 91/177/91 93/178/93 
f 93/178/93 94/179/94 95/175/95 
f 96/176/96 97/180/97 92/181/92 91/177/91 
f 97/180/97 98/182/98 100/183/100 92/181/92 
f 98/182/98 99/184/99 100/183/100 
# 98 polygons - 2 triangles

