# 3ds Max Wavefront OBJ Exporter v0.97b - (c)2007 guruware
# File Created: 17.12.2017 19:51:53

mtllib Game Shelves_LP.mtl

#
# object Game_shelves
#

v  -9.6283 0.3685 -24.4022
v  -8.9283 0.3685 -24.4022
v  -8.9283 0.3685 -22.8113
v  -9.6283 0.3685 -22.8113
v  -9.6283 0.4210 -24.4022
v  -9.6283 0.4210 -22.8113
v  -8.9283 0.4210 -22.8113
v  -8.9283 0.4210 -24.4022
v  -9.6283 0.3685 -22.7318
v  -8.9283 0.3685 -22.7318
v  -8.9283 0.4210 -22.7318
v  -9.6283 0.4210 -22.7318
v  -8.9283 0.3685 -24.4818
v  -9.6283 0.3685 -24.4818
v  -9.6283 0.4210 -24.4818
v  -8.9283 0.4210 -24.4818
v  -9.4755 1.7703 -24.4818
v  -9.6283 1.7703 -24.4818
v  -9.6283 1.7703 -24.4022
v  -9.4755 1.7703 -24.4022
v  -9.6283 1.7703 -22.7318
v  -9.4755 1.7703 -22.7318
v  -9.4755 1.7703 -22.8113
v  -9.6283 1.7703 -22.8113
v  -9.2347 1.1766 -24.4818
v  -9.1471 0.9607 -24.4818
v  -9.6283 0.9607 -24.4818
v  -9.6283 1.1766 -24.4818
v  -9.2347 1.1766 -24.4022
v  -9.1471 0.9607 -24.4022
v  -9.2347 1.1766 -22.7318
v  -9.6283 1.1766 -22.7318
v  -9.6283 0.9607 -22.7318
v  -9.1471 0.9607 -22.7318
v  -9.2347 1.1766 -22.8113
v  -9.1471 0.9607 -22.8113
v  -9.6283 1.5005 -24.4818
v  -9.3660 1.5005 -24.4818
v  -9.3441 1.4465 -24.4818
v  -9.2566 1.2306 -24.4818
v  -9.6283 1.2306 -24.4818
v  -9.6283 1.4465 -24.4818
v  -9.0377 0.6909 -24.4818
v  -9.6283 0.6909 -24.4818
v  -9.6283 0.7448 -24.4818
v  -9.6283 0.9068 -24.4818
v  -9.1253 0.9068 -24.4818
v  -9.0596 0.7448 -24.4818
v  -9.6283 1.5005 -24.4022
v  -9.3660 1.5005 -24.4022
v  -9.3441 1.4465 -24.4022
v  -9.2566 1.2306 -24.4022
v  -9.0377 0.6909 -24.4022
v  -9.0596 0.7448 -24.4022
v  -9.1253 0.9068 -24.4022
v  -9.6283 1.5005 -22.7318
v  -9.3660 1.5005 -22.7318
v  -9.3441 1.4465 -22.7318
v  -9.6283 1.4465 -22.7318
v  -9.6283 1.2306 -22.7318
v  -9.2566 1.2306 -22.7318
v  -9.0377 0.6909 -22.7318
v  -9.6283 0.6909 -22.7318
v  -9.6283 0.7448 -22.7318
v  -9.0596 0.7448 -22.7318
v  -9.1253 0.9068 -22.7318
v  -9.6283 0.9068 -22.7318
v  -9.3660 1.5005 -22.8113
v  -9.3441 1.4465 -22.8113
v  -9.2566 1.2306 -22.8113
v  -9.0377 0.6909 -22.8113
v  -9.0596 0.7448 -22.8113
v  -9.1253 0.9068 -22.8113
v  -9.6283 1.5005 -22.8113
v  -9.6283 0.7448 -24.4022
v  -9.6283 0.6909 -24.4022
v  -9.6195 0.6996 -24.4022
v  -9.6195 0.7361 -24.4022
v  -9.0507 0.6481 -24.4022
v  -9.0655 0.6846 -24.4022
v  -9.0860 0.6865 -24.4022
v  -9.6283 0.9607 -24.4022
v  -9.6195 0.9520 -24.4022
v  -9.1703 0.9024 -24.4022
v  -9.1530 0.9005 -24.4022
v  -9.6283 0.9068 -24.4022
v  -9.6195 0.9155 -24.4022
v  -9.1382 0.8640 -24.4022
v  -9.0507 0.6481 -22.8113
v  -9.0655 0.6846 -22.8113
v  -9.6283 0.6909 -22.8113
v  -9.6195 0.6996 -22.8113
v  -9.6283 0.7448 -22.8113
v  -9.6195 0.7361 -22.8113
v  -9.0860 0.6865 -22.8113
v  -9.6283 0.9607 -22.8113
v  -9.1530 0.9005 -22.8113
v  -9.1703 0.9024 -22.8113
v  -9.6195 0.9520 -22.8113
v  -9.1382 0.8640 -22.8113
v  -9.6283 0.9068 -22.8113
v  -9.6195 0.9155 -22.8113
v  -9.6283 1.2306 -24.4022
v  -9.6195 1.2218 -24.4022
v  -9.2823 1.1732 -24.4022
v  -9.2625 1.1703 -24.4022
v  -9.6283 1.1766 -24.4022
v  -9.6195 1.1854 -24.4022
v  -9.2477 1.1339 -24.4022
v  -9.6283 1.2306 -22.8113
v  -9.2625 1.1703 -22.8113
v  -9.2823 1.1732 -22.8113
v  -9.6195 1.2218 -22.8113
v  -9.2477 1.1339 -22.8113
v  -9.6283 1.1766 -22.8113
v  -9.6195 1.1854 -22.8113
v  -9.6195 1.4917 -24.4022
v  -9.3994 1.4459 -24.4022
v  -9.3719 1.4402 -24.4022
v  -9.6283 1.4465 -24.4022
v  -9.6195 1.4552 -24.4022
v  -9.3571 1.4037 -24.4022
v  -9.3719 1.4402 -22.8113
v  -9.3994 1.4459 -22.8113
v  -9.6195 1.4917 -22.8113
v  -9.3571 1.4037 -22.8113
v  -9.6283 1.4465 -22.8113
v  -9.6195 1.4552 -22.8113
v  -9.6283 2.1174 -24.4022
v  -9.6283 2.1174 -22.8113
v  -9.3770 1.4502 -22.8183
v  -9.3770 1.4502 -24.3952
v  -9.3908 1.4531 -24.3952
v  -9.3908 1.4531 -22.8183
v  -9.0716 0.6939 -22.8183
v  -9.0716 0.6939 -24.3952
v  -9.0782 0.6945 -24.3952
v  -9.0782 0.6945 -22.8183
v  -9.1590 0.9099 -22.8183
v  -9.1590 0.9099 -24.3952
v  -9.1624 0.9103 -24.3952
v  -9.1624 0.9103 -22.8183
v  -9.2682 1.1800 -22.8183
v  -9.2682 1.1800 -24.3952
v  -9.2741 1.1809 -24.3952
v  -9.2741 1.1809 -22.8183
v  -9.6387 0.3685 -24.4022
v  -9.6387 0.3685 -22.8113
v  -10.3387 0.3685 -22.8113
v  -10.3387 0.3685 -24.4022
v  -9.6387 0.4210 -24.4022
v  -10.3387 0.4210 -24.4022
v  -10.3387 0.4210 -22.8113
v  -9.6387 0.4210 -22.8113
v  -9.6387 0.3685 -22.7318
v  -9.6387 0.4210 -22.7318
v  -10.3387 0.4210 -22.7318
v  -10.3387 0.3685 -22.7318
v  -10.3387 0.3685 -24.4818
v  -10.3387 0.4210 -24.4818
v  -9.6387 0.4210 -24.4818
v  -9.6387 0.3685 -24.4818
v  -9.7915 1.7703 -24.4818
v  -9.7915 1.7703 -24.4022
v  -9.6387 1.7703 -24.4022
v  -9.6387 1.7703 -24.4818
v  -9.6387 1.7703 -22.7318
v  -9.6387 1.7703 -22.8113
v  -9.7915 1.7703 -22.8113
v  -9.7915 1.7703 -22.7318
v  -10.0323 1.1766 -24.4818
v  -9.6387 1.1766 -24.4818
v  -9.6387 0.9607 -24.4818
v  -10.1198 0.9607 -24.4818
v  -10.1198 0.9607 -24.4022
v  -10.0323 1.1766 -24.4022
v  -10.0323 1.1766 -22.7318
v  -10.1198 0.9607 -22.7318
v  -9.6387 0.9607 -22.7318
v  -9.6387 1.1766 -22.7318
v  -10.0323 1.1766 -22.8113
v  -10.1198 0.9607 -22.8113
v  -9.6387 1.5005 -24.4818
v  -9.9010 1.5005 -24.4818
v  -9.9229 1.4465 -24.4818
v  -9.6387 1.4465 -24.4818
v  -9.6387 1.2306 -24.4818
v  -10.0104 1.2306 -24.4818
v  -10.2293 0.6909 -24.4818
v  -9.6387 0.6909 -24.4818
v  -9.6387 0.7448 -24.4818
v  -10.2074 0.7448 -24.4818
v  -10.1417 0.9068 -24.4818
v  -9.6387 0.9068 -24.4818
v  -9.9010 1.5005 -24.4022
v  -9.6387 1.5005 -24.4022
v  -10.0104 1.2306 -24.4022
v  -9.9229 1.4465 -24.4022
v  -10.2293 0.6909 -24.4022
v  -10.2074 0.7448 -24.4022
v  -10.1417 0.9068 -24.4022
v  -9.9010 1.5005 -22.7318
v  -9.6387 1.5005 -22.7318
v  -9.9229 1.4465 -22.7318
v  -10.0104 1.2306 -22.7318
v  -9.6387 1.2306 -22.7318
v  -9.6387 1.4465 -22.7318
v  -9.6387 0.6909 -22.7318
v  -10.2293 0.6909 -22.7318
v  -9.6387 0.7448 -22.7318
v  -9.6387 0.9068 -22.7318
v  -10.1417 0.9068 -22.7318
v  -10.2074 0.7448 -22.7318
v  -9.9010 1.5005 -22.8113
v  -9.9229 1.4465 -22.8113
v  -10.0104 1.2306 -22.8113
v  -10.2293 0.6909 -22.8113
v  -10.1417 0.9068 -22.8113
v  -10.2074 0.7448 -22.8113
v  -9.6387 1.5005 -22.8113
v  -9.6387 0.7448 -24.4022
v  -9.6475 0.7361 -24.4022
v  -9.6475 0.6996 -24.4022
v  -9.6387 0.6909 -24.4022
v  -10.2163 0.6481 -24.4022
v  -10.2015 0.6846 -24.4022
v  -10.1810 0.6865 -24.4022
v  -10.1140 0.9005 -24.4022
v  -10.0967 0.9024 -24.4022
v  -9.6475 0.9520 -24.4022
v  -9.6387 0.9607 -24.4022
v  -9.6475 0.9155 -24.4022
v  -9.6387 0.9068 -24.4022
v  -10.1287 0.8640 -24.4022
v  -10.2015 0.6846 -22.8113
v  -10.2163 0.6481 -22.8113
v  -9.6475 0.6996 -22.8113
v  -9.6387 0.6909 -22.8113
v  -9.6475 0.7361 -22.8113
v  -9.6387 0.7448 -22.8113
v  -10.1810 0.6865 -22.8113
v  -9.6387 0.9607 -22.8113
v  -9.6475 0.9520 -22.8113
v  -10.0967 0.9024 -22.8113
v  -10.1140 0.9005 -22.8113
v  -10.1287 0.8640 -22.8113
v  -9.6475 0.9155 -22.8113
v  -9.6387 0.9068 -22.8113
v  -10.0045 1.1703 -24.4022
v  -9.9847 1.1732 -24.4022
v  -9.6475 1.2218 -24.4022
v  -9.6387 1.2306 -24.4022
v  -9.6475 1.1854 -24.4022
v  -9.6387 1.1766 -24.4022
v  -10.0193 1.1339 -24.4022
v  -9.6387 1.2306 -22.8113
v  -9.6475 1.2218 -22.8113
v  -9.9847 1.1732 -22.8113
v  -10.0045 1.1703 -22.8113
v  -10.0193 1.1339 -22.8113
v  -9.6475 1.1854 -22.8113
v  -9.6387 1.1766 -22.8113
v  -9.8951 1.4402 -24.4022
v  -9.8676 1.4459 -24.4022
v  -9.6475 1.4917 -24.4022
v  -9.6475 1.4552 -24.4022
v  -9.6387 1.4465 -24.4022
v  -9.9099 1.4037 -24.4022
v  -9.6475 1.4917 -22.8113
v  -9.8676 1.4459 -22.8113
v  -9.8951 1.4402 -22.8113
v  -9.9099 1.4037 -22.8113
v  -9.6475 1.4552 -22.8113
v  -9.6387 1.4465 -22.8113
v  -9.6387 2.1174 -22.8113
v  -9.6387 2.1174 -24.4022
v  -9.8900 1.4502 -22.8183
v  -9.8762 1.4531 -22.8183
v  -9.8762 1.4531 -24.3952
v  -9.8900 1.4502 -24.3952
v  -10.1953 0.6939 -22.8183
v  -10.1888 0.6945 -22.8183
v  -10.1888 0.6945 -24.3952
v  -10.1953 0.6939 -24.3952
v  -10.1080 0.9099 -22.8183
v  -10.1046 0.9103 -22.8183
v  -10.1046 0.9103 -24.3952
v  -10.1080 0.9099 -24.3952
v  -9.9988 1.1800 -22.8183
v  -9.9929 1.1809 -22.8183
v  -9.9929 1.1809 -24.3952
v  -9.9988 1.1800 -24.3952
# 292 vertices

vn 0.0000 -1.0000 -0.0000
vn 0.0000 1.0000 -0.0000
vn 0.0000 0.0000 1.0000
vn 1.0000 0.0000 -0.0000
vn 0.0000 0.0000 -1.0000
vn 0.9267 0.3758 -0.0000
vn -1.0000 0.0000 -0.0000
vn -0.0902 -0.9959 -0.0000
vn -0.1064 -0.9943 -0.0000
vn 0.9267 0.3758 0.0000
vn 0.1428 0.9898 0.0000
vn 0.1428 0.9898 -0.0000
vn -0.1372 -0.9905 -0.0000
vn -0.1927 -0.9813 -0.0000
vn 0.2037 0.9790 -0.0000
vn 0.0926 0.9957 -0.0000
vn 0.1098 0.9940 -0.0000
vn 0.1272 0.6116 0.7809
vn 0.1273 0.6116 0.7809
vn 0.8917 0.4525 -0.0000
vn 0.1272 0.6116 -0.7809
vn 0.1273 0.6116 -0.7809
vn -0.6372 0.7707 0.0000
vn 0.0578 0.6220 0.7809
vn 0.8354 0.5497 -0.0000
vn 0.0578 0.6220 -0.7809
vn -0.7197 0.6943 -0.0000
vn 0.0686 0.6209 0.7809
vn 0.8447 0.5352 -0.0000
vn 0.0686 0.6209 -0.7809
vn -0.7076 0.7066 -0.0000
vn 0.0892 0.6183 0.7809
vn 0.8621 0.5068 -0.0000
vn 0.0892 0.6183 -0.7809
vn -0.6837 0.7298 0.0000
vn -0.9267 0.3758 -0.0000
vn 0.0902 -0.9959 -0.0000
vn 0.1064 -0.9943 -0.0000
vn -0.9267 0.3758 0.0000
vn -0.1428 0.9898 0.0000
vn -0.1428 0.9898 -0.0000
vn 0.1372 -0.9905 -0.0000
vn 0.1927 -0.9813 -0.0000
vn -0.2037 0.9790 -0.0000
vn -0.0926 0.9957 -0.0000
vn -0.1098 0.9940 -0.0000
vn -0.1273 0.6116 0.7809
vn -0.1272 0.6116 0.7809
vn -0.8917 0.4525 -0.0000
vn -0.1273 0.6116 -0.7809
vn -0.1272 0.6116 -0.7809
vn 0.6372 0.7707 0.0000
vn 0.6372 0.7707 -0.0000
vn -0.0578 0.6220 0.7809
vn -0.8354 0.5497 -0.0000
vn -0.0578 0.6220 -0.7809
vn 0.7197 0.6943 -0.0000
vn -0.0686 0.6209 0.7809
vn -0.8447 0.5352 -0.0000
vn -0.0686 0.6209 -0.7809
vn 0.7076 0.7066 -0.0000
vn -0.0892 0.6183 0.7809
vn -0.8621 0.5068 -0.0000
vn -0.0892 0.6183 -0.7809
vn 0.6837 0.7298 0.0000
# 65 vertex normals

vt 1.0000 0.9545 0.0000
vt 0.0000 0.9545 0.0000
vt 0.0000 0.0455 0.0000
vt 1.0000 0.0455 0.0000
vt 0.0000 0.0000 0.0000
vt 1.0000 0.0000 0.0000
vt 1.0000 1.0000 0.0000
vt 0.0000 1.0000 0.0000
vt 0.9545 0.0000 0.0000
vt 0.9545 1.0000 0.0000
vt 0.0455 1.0000 0.0000
vt 0.0455 0.0000 0.0000
vt 0.9630 0.9545 0.0000
vt 0.9630 0.0455 0.0000
vt 0.9444 0.9545 0.0000
vt 0.9444 0.0455 0.0000
vt 0.8889 0.9545 0.0000
vt 0.8889 0.0455 0.0000
# 18 texture coords

o Game_shelves
g Game_shelves
usemtl wire_135006006
s off
f 1/1/1 2/2/1 3/3/1 4/4/1 
f 5/2/2 6/3/2 7/4/2 8/1/2 
f 9/5/3 10/6/3 11/7/3 12/8/3 
f 2/9/4 8/10/4 7/11/4 3/12/4 
f 13/5/5 14/6/5 15/7/5 16/8/5 
f 14/7/1 13/8/1 2/2/1 1/1/1 
f 10/5/1 9/6/1 4/4/1 3/3/1 
f 17/7/2 18/8/2 19/2/2 20/1/2 
f 21/5/2 22/6/2 23/4/2 24/3/2 
f 13/6/4 16/7/4 8/10/4 2/9/4 
f 11/8/4 10/5/4 3/12/4 7/11/4 
f 16/7/4 15/8/4 15/8/4 16/7/4 
f 5/2/4 8/1/4 8/1/4 5/2/4 
f 8/1/4 16/7/4 16/7/4 8/1/4 
f 12/5/4 11/6/4 11/6/4 12/5/4 
f 11/6/4 7/4/4 7/4/4 11/6/4 
f 7/4/4 6/3/4 6/3/4 7/4/4 
f 25/7/5 26/7/5 27/8/5 28/8/5 
f 25/7/6 29/1/6 30/1/6 26/7/6 
f 31/6/3 32/5/3 33/5/3 34/6/3 
f 35/4/6 31/6/6 34/6/6 36/4/6 
f 37/8/5 18/8/5 17/7/5 38/7/5 
f 39/7/5 40/7/5 41/8/5 42/8/5 
f 43/7/5 16/7/5 15/8/5 44/8/5 
f 45/8/5 46/8/5 47/7/5 48/7/5 
f 20/1/3 19/2/3 49/2/3 50/1/3 
f 17/7/6 20/1/6 50/1/6 38/7/6 
f 39/7/6 51/1/6 52/1/6 40/7/6 
f 8/1/6 16/7/6 43/7/6 53/1/6 
f 54/1/6 48/7/6 47/7/6 55/1/6 
f 22/6/3 21/5/3 56/5/3 57/6/3 
f 58/6/3 59/5/3 60/5/3 61/6/3 
f 12/5/3 11/6/3 62/6/3 63/5/3 
f 64/5/3 65/6/3 66/6/3 67/5/3 
f 23/4/6 22/6/6 57/6/6 68/4/6 
f 69/4/6 58/6/6 61/6/6 70/4/6 
f 11/6/6 7/4/6 71/4/6 62/6/6 
f 65/6/6 72/4/6 73/4/6 66/6/6 
f 74/3/5 24/3/5 23/4/5 68/4/5 
f 48/7/5 43/7/5 44/8/5 45/8/5 
f 46/8/5 27/8/5 26/7/5 47/7/5 
f 53/1/6 43/7/6 48/7/6 54/1/6 
f 26/7/6 30/1/6 55/1/6 47/7/6 
f 63/5/3 62/6/3 65/6/3 64/5/3 
f 34/6/3 33/5/3 67/5/3 66/6/3 
f 62/6/6 71/4/6 72/4/6 65/6/6 
f 36/4/6 34/6/6 66/6/6 73/4/6 
f 28/8/5 41/8/5 40/7/5 25/7/5 
f 40/7/6 52/1/6 29/1/6 25/7/6 
f 61/6/3 60/5/3 32/5/3 31/6/3 
f 70/4/6 61/6/6 31/6/6 35/4/6 
f 42/8/5 37/8/5 38/7/5 39/7/5 
f 38/7/6 50/1/6 51/1/6 39/7/6 
f 57/6/3 56/5/3 59/5/3 58/6/3 
f 68/4/6 57/6/6 58/6/6 69/4/6 
f 75/2/3 76/2/3 77/2/3 78/2/3 
f 5/2/3 8/1/3 53/1/3 76/2/3 
f 76/2/5 53/1/5 79/1/5 77/2/3 
f 53/1/3 54/1/3 80/1/3 79/1/3 
f 54/1/3 75/2/3 78/2/3 81/13/3 
f 54/1/3 81/13/3 80/1/3 
f 30/1/3 82/2/3 83/2/3 84/13/3 
f 30/1/3 84/13/3 85/1/3 
f 82/2/3 86/2/3 87/2/3 83/2/3 
f 75/2/3 54/1/3 55/1/3 86/2/3 
f 86/2/5 55/1/5 88/1/5 87/2/3 
f 55/1/3 30/1/3 85/1/3 88/1/3 
f 72/4/5 71/4/5 89/4/5 90/4/5 
f 71/4/5 7/4/5 6/3/5 91/3/5 
f 71/4/5 91/3/5 92/3/5 89/4/3 
f 91/3/5 93/3/5 94/3/5 92/3/5 
f 93/3/5 72/4/5 90/4/5 95/14/5 
f 93/3/5 95/14/5 94/3/5 
f 96/3/5 36/4/5 97/4/5 98/14/5 
f 96/3/5 98/14/5 99/3/5 
f 36/4/5 73/4/5 100/4/5 97/4/5 
f 73/4/5 72/4/5 93/3/5 101/3/5 
f 73/4/5 101/3/5 102/3/5 100/4/3 
f 101/3/5 96/3/5 99/3/5 102/3/5 
f 52/1/3 103/2/3 104/2/3 105/15/3 
f 52/1/3 105/15/3 106/1/3 
f 103/2/3 107/2/3 108/2/3 104/2/3 
f 82/2/3 30/1/3 29/1/3 107/2/3 
f 107/2/5 29/1/5 109/1/5 108/2/3 
f 29/1/3 52/1/3 106/1/3 109/1/3 
f 110/3/5 70/4/5 111/4/5 112/16/5 
f 110/3/5 112/16/5 113/3/5 
f 70/4/5 35/4/5 114/4/5 111/4/5 
f 35/4/5 36/4/5 96/3/5 115/3/5 
f 35/4/5 115/3/5 116/3/5 114/4/3 
f 115/3/5 110/3/5 113/3/5 116/3/5 
f 50/1/3 49/2/3 117/2/3 118/17/3 
f 50/1/3 118/17/3 119/1/3 
f 49/2/3 120/2/3 121/2/3 117/2/3 
f 103/2/3 52/1/3 51/1/3 120/2/3 
f 120/2/5 51/1/5 122/1/5 121/2/3 
f 51/1/3 50/1/3 119/1/3 122/1/3 
f 74/3/5 68/4/5 123/4/5 124/18/5 
f 74/3/5 124/18/5 125/3/5 
f 68/4/5 69/4/5 126/4/5 123/4/5 
f 69/4/5 70/4/5 110/3/5 127/3/5 
f 69/4/5 127/3/5 128/3/5 126/4/3 
f 127/3/5 74/3/5 125/3/5 128/3/5 
f 78/2/7 77/2/7 92/3/7 94/3/7 
f 77/2/8 79/1/8 89/4/8 92/3/8 
f 79/1/6 80/1/6 90/4/6 89/4/6 
f 88/1/6 85/1/6 97/4/6 100/4/6 
f 83/2/7 87/2/7 102/3/7 99/3/7 
f 87/2/9 88/1/9 100/4/9 102/3/9 
f 109/1/10 106/1/6 111/4/10 114/4/10 
f 104/2/11 113/3/12 112/16/11 105/15/11 
f 104/2/7 108/2/7 116/3/7 113/3/7 
f 108/2/13 109/1/13 114/4/13 116/3/13 
f 117/2/7 121/2/7 128/3/7 125/3/7 
f 121/2/14 122/1/14 126/4/14 128/3/14 
f 122/1/6 119/1/6 123/4/6 126/4/6 
f 125/3/15 124/18/15 118/17/15 117/2/15 
f 6/4/4 5/8/4 76/7/4 91/1/4 
f 91/1/4 76/7/4 75/6/4 93/3/4 
f 93/3/4 75/6/4 86/6/4 101/3/4 
f 101/3/4 86/6/4 82/8/4 96/1/4 
f 96/1/4 82/8/4 107/8/4 115/1/4 
f 115/1/4 107/8/4 103/2/4 110/1/4 
f 110/1/4 103/2/4 120/6/4 127/3/4 
f 127/3/4 120/6/4 49/1/4 74/1/4 
f 74/1/4 49/1/4 19/1/4 24/3/4 
f 24/3/4 19/1/4 129/1/4 130/3/4 
f 81/13/16 78/2/16 94/3/16 95/14/16 
f 84/13/17 83/2/17 99/3/17 98/14/17 
f 131/4/15 132/1/15 133/17/15 134/18/15 
f 135/4/16 136/1/16 137/13/16 138/14/16 
f 139/4/17 140/1/17 141/13/17 142/14/17 
f 143/4/11 144/1/12 145/15/11 146/16/11 
f 124/18/18 123/4/18 131/4/18 134/18/19 
f 123/4/20 119/1/20 132/1/20 131/4/20 
f 119/1/21 118/17/21 133/17/21 132/1/22 
f 118/17/23 124/18/23 134/18/23 133/17/23 
f 95/14/24 90/4/24 135/4/24 138/14/24 
f 90/4/25 80/1/25 136/1/25 135/4/25 
f 80/1/26 81/13/26 137/13/26 136/1/26 
f 81/13/27 95/14/27 138/14/27 137/13/27 
f 98/14/28 97/4/28 139/4/28 142/14/28 
f 97/4/29 85/1/29 140/1/29 139/4/29 
f 85/1/30 84/13/30 141/13/30 140/1/30 
f 84/13/31 98/14/31 142/14/31 141/13/31 
f 112/16/32 111/4/32 143/4/32 146/16/32 
f 111/4/33 106/1/33 144/1/33 143/4/33 
f 106/1/34 105/15/34 145/15/34 144/1/34 
f 105/15/35 112/16/35 146/16/35 145/15/35 
f 147/1/1 148/4/1 149/3/1 150/2/1 
f 151/2/2 152/1/2 153/4/2 154/3/2 
f 155/5/3 156/8/3 157/7/3 158/6/3 
f 150/9/7 149/12/7 153/11/7 152/10/7 
f 159/5/5 160/8/5 161/7/5 162/6/5 
f 162/7/1 147/1/1 150/2/1 159/8/1 
f 158/5/1 149/3/1 148/4/1 155/6/1 
f 163/7/2 164/1/2 165/2/2 166/8/2 
f 167/5/2 168/3/2 169/4/2 170/6/2 
f 159/6/7 150/9/7 152/10/7 160/7/7 
f 157/8/7 153/11/7 149/12/7 158/5/7 
f 160/7/4 160/7/4 161/8/4 161/8/4 
f 151/2/4 151/2/4 152/1/4 152/1/4 
f 152/1/4 152/1/4 160/7/4 160/7/4 
f 156/5/4 156/5/4 157/6/4 157/6/4 
f 157/6/4 157/6/4 153/4/4 153/4/4 
f 153/4/4 153/4/4 154/3/4 154/3/4 
f 171/7/5 172/8/5 173/8/5 174/7/5 
f 171/7/36 174/7/36 175/1/36 176/1/36 
f 177/6/3 178/6/3 179/5/3 180/5/3 
f 181/4/36 182/4/36 178/6/36 177/6/36 
f 183/8/5 184/7/5 163/7/5 166/8/5 
f 185/7/5 186/8/5 187/8/5 188/7/5 
f 189/7/5 190/8/5 161/8/5 160/7/5 
f 191/8/5 192/7/5 193/7/5 194/8/5 
f 164/1/3 195/1/3 196/2/3 165/2/3 
f 163/7/36 184/7/36 195/1/36 164/1/36 
f 185/7/36 188/7/36 197/1/36 198/1/36 
f 152/1/36 199/1/36 189/7/36 160/7/36 
f 200/1/36 201/1/36 193/7/36 192/7/36 
f 170/6/3 202/6/3 203/5/3 167/5/3 
f 204/6/3 205/6/3 206/5/3 207/5/3 
f 156/5/3 208/5/3 209/6/3 157/6/3 
f 210/5/3 211/5/3 212/6/3 213/6/3 
f 169/4/36 214/4/36 202/6/36 170/6/36 
f 215/4/36 216/4/36 205/6/36 204/6/36 
f 157/6/36 209/6/36 217/4/36 153/4/36 
f 213/6/36 212/6/36 218/4/36 219/4/36 
f 220/3/5 214/4/5 169/4/5 168/3/5 
f 192/7/5 191/8/5 190/8/5 189/7/5 
f 194/8/5 193/7/5 174/7/5 173/8/5 
f 199/1/36 200/1/36 192/7/36 189/7/36 
f 174/7/36 193/7/36 201/1/36 175/1/36 
f 208/5/3 210/5/3 213/6/3 209/6/3 
f 178/6/3 212/6/3 211/5/3 179/5/3 
f 209/6/36 213/6/36 219/4/36 217/4/36 
f 182/4/36 218/4/36 212/6/36 178/6/36 
f 172/8/5 171/7/5 188/7/5 187/8/5 
f 188/7/36 171/7/36 176/1/36 197/1/36 
f 205/6/3 177/6/3 180/5/3 206/5/3 
f 216/4/36 181/4/36 177/6/36 205/6/36 
f 186/8/5 185/7/5 184/7/5 183/8/5 
f 184/7/36 185/7/36 198/1/36 195/1/36 
f 202/6/3 204/6/3 207/5/3 203/5/3 
f 214/4/36 215/4/36 204/6/36 202/6/36 
f 221/2/3 222/2/3 223/2/3 224/2/3 
f 224/2/3 223/2/3 225/1/3 199/1/5 
f 199/1/3 152/1/3 151/2/3 224/2/3 
f 199/1/3 225/1/3 226/1/3 200/1/3 
f 200/1/3 226/1/3 227/13/3 222/2/3 
f 200/1/3 222/2/3 221/2/3 
f 175/1/3 228/1/3 229/13/3 230/2/3 
f 175/1/3 230/2/3 231/2/3 
f 231/2/3 230/2/3 232/2/3 233/2/3 
f 233/2/3 232/2/3 234/1/3 201/1/5 
f 201/1/3 200/1/3 221/2/3 233/2/3 
f 201/1/3 234/1/3 228/1/3 175/1/3 
f 219/4/5 235/4/5 236/4/5 217/4/5 
f 217/4/3 236/4/3 237/3/3 238/3/5 
f 217/4/5 238/3/5 154/3/5 153/4/5 
f 238/3/5 237/3/5 239/3/5 240/3/5 
f 240/3/5 239/3/5 241/14/5 235/4/5 
f 240/3/5 235/4/5 219/4/5 
f 242/3/5 243/3/5 244/14/5 245/4/5 
f 242/3/5 245/4/5 182/4/5 
f 182/4/5 245/4/5 246/4/5 218/4/5 
f 218/4/3 246/4/3 247/3/3 248/3/5 
f 218/4/5 248/3/5 240/3/5 219/4/5 
f 248/3/5 247/3/5 243/3/5 242/3/5 
f 197/1/3 249/1/3 250/15/3 251/2/3 
f 197/1/3 251/2/3 252/2/3 
f 252/2/3 251/2/3 253/2/3 254/2/3 
f 254/2/3 253/2/3 255/1/3 176/1/5 
f 176/1/3 175/1/3 231/2/3 254/2/3 
f 176/1/3 255/1/3 249/1/3 197/1/3 
f 256/3/5 257/3/5 258/16/5 259/4/5 
f 256/3/5 259/4/5 216/4/5 
f 216/4/5 259/4/5 260/4/5 181/4/5 
f 181/4/3 260/4/3 261/3/3 262/3/5 
f 181/4/5 262/3/5 242/3/5 182/4/5 
f 262/3/5 261/3/5 257/3/5 256/3/5 
f 195/1/3 263/1/3 264/17/3 265/2/3 
f 195/1/3 265/2/3 196/2/3 
f 196/2/3 265/2/3 266/2/3 267/2/3 
f 267/2/3 266/2/3 268/1/3 198/1/5 
f 198/1/3 197/1/3 252/2/3 267/2/3 
f 198/1/3 268/1/3 263/1/3 195/1/3 
f 220/3/5 269/3/5 270/18/5 271/4/5 
f 220/3/5 271/4/5 214/4/5 
f 214/4/5 271/4/5 272/4/5 215/4/5 
f 215/4/3 272/4/3 273/3/3 274/3/5 
f 215/4/5 274/3/5 256/3/5 216/4/5 
f 274/3/5 273/3/5 269/3/5 220/3/5 
f 222/2/4 239/3/4 237/3/4 223/2/4 
f 223/2/37 237/3/37 236/4/37 225/1/37 
f 225/1/36 236/4/36 235/4/36 226/1/36 
f 234/1/36 246/4/36 245/4/36 228/1/36 
f 230/2/4 243/3/4 247/3/4 232/2/4 
f 232/2/38 247/3/38 246/4/38 234/1/38 
f 255/1/39 260/4/39 259/4/39 249/1/36 
f 251/2/40 250/15/40 258/16/40 257/3/41 
f 251/2/4 257/3/4 261/3/4 253/2/4 
f 253/2/42 261/3/42 260/4/42 255/1/42 
f 265/2/4 269/3/4 273/3/4 266/2/4 
f 266/2/43 273/3/43 272/4/43 268/1/43 
f 268/1/36 272/4/36 271/4/36 263/1/36 
f 269/3/44 265/2/44 264/17/44 270/18/44 
f 154/4/7 238/1/7 224/7/7 151/8/7 
f 238/1/7 240/3/7 221/6/7 224/7/7 
f 240/3/7 248/3/7 233/6/7 221/6/7 
f 248/3/7 242/1/7 231/8/7 233/6/7 
f 242/1/7 262/1/7 254/8/7 231/8/7 
f 262/1/7 256/1/7 252/2/7 254/8/7 
f 256/1/7 274/3/7 267/6/7 252/2/7 
f 274/3/7 220/1/7 196/1/7 267/6/7 
f 220/1/7 168/3/7 165/1/7 196/1/7 
f 168/3/7 275/3/7 276/1/7 165/1/7 
f 227/13/45 241/14/45 239/3/45 222/2/45 
f 229/13/46 244/14/46 243/3/46 230/2/46 
f 277/4/44 278/18/44 279/17/44 280/1/44 
f 281/4/45 282/14/45 283/13/45 284/1/45 
f 285/4/46 286/14/46 287/13/46 288/1/46 
f 289/4/40 290/16/40 291/15/40 292/1/41 
f 270/18/47 278/18/47 277/4/47 271/4/48 
f 271/4/49 277/4/49 280/1/49 263/1/49 
f 263/1/50 280/1/50 279/17/50 264/17/51 
f 264/17/52 279/17/52 278/18/52 270/18/53 
f 241/14/54 282/14/54 281/4/54 235/4/54 
f 235/4/55 281/4/55 284/1/55 226/1/55 
f 226/1/56 284/1/56 283/13/56 227/13/56 
f 227/13/57 283/13/57 282/14/57 241/14/57 
f 244/14/58 286/14/58 285/4/58 245/4/58 
f 245/4/59 285/4/59 288/1/59 228/1/59 
f 228/1/60 288/1/60 287/13/60 229/13/60 
f 229/13/61 287/13/61 286/14/61 244/14/61 
f 258/16/62 290/16/62 289/4/62 259/4/62 
f 259/4/63 289/4/63 292/1/63 249/1/63 
f 249/1/64 292/1/64 291/15/64 250/15/64 
f 250/15/65 291/15/65 290/16/65 258/16/65 
f 168/1/3 24/3/3 130/2/3 275/14/3 
f 275/14/2 130/2/2 129/1/2 276/4/2 
f 167/2/2 21/12/2 24/3/2 168/1/2 
f 180/6/3 32/2/3 60/7/3 206/8/3 
f 206/8/3 60/7/3 59/4/3 207/7/3 
f 207/7/3 59/4/3 56/7/3 203/8/3 
f 203/8/3 56/7/3 21/12/3 167/2/3 
f 148/17/1 4/5/1 9/6/1 155/14/1 
f 155/14/3 9/6/3 12/5/3 156/13/3 
f 156/10/3 12/4/3 63/7/3 208/1/3 
f 208/1/3 63/7/3 64/4/3 210/5/3 
f 210/5/3 64/4/3 67/4/3 211/4/3 
f 211/4/3 67/4/3 33/7/3 179/1/3 
f 179/1/3 33/7/3 32/2/3 180/6/3 
f 147/18/1 1/5/1 4/5/1 148/17/1 
f 162/4/1 14/7/1 1/5/1 147/18/1 
f 161/1/5 15/8/5 14/7/5 162/4/5 
f 190/5/5 44/5/5 15/6/5 161/5/5 
f 191/8/5 45/5/5 44/5/5 190/5/5 
f 194/8/5 46/5/5 45/5/5 191/8/5 
f 173/8/5 27/6/5 46/5/5 194/8/5 
f 172/5/5 28/7/5 27/6/5 173/8/5 
f 187/7/5 41/4/5 28/7/5 172/5/5 
f 186/6/5 42/5/5 41/4/5 187/7/5 
f 183/3/5 37/3/5 42/5/5 186/6/5 
f 166/3/5 18/2/5 37/3/5 183/3/5 
f 165/4/2 19/1/2 18/2/2 166/3/2 
f 276/4/5 129/1/5 19/1/5 165/4/5 
f 6/4/4 6/3/4 5/2/4 5/2/4 
f 151/8/4 151/2/4 154/3/4 154/3/4 
f 161/8/4 15/6/4 15/8/4 161/1/4 
f 156/5/4 12/5/4 12/5/4 156/10/4 
# 314 polygons - 16 triangles

