# 3ds Max Wavefront OBJ Exporter v0.97b - (c)2007 guruware
# File Created: 17.12.2017 18:52:34

mtllib spot light- not sure if to be used.mtl

#
# object light_base___light
#

v  0.1087 0.0243 19.3442
v  0.0709 0.0243 19.3125
v  0.0246 0.0243 19.2957
v  0.1419 0.0243 19.4354
v  -0.0246 0.0243 19.2957
v  -0.0709 0.0243 19.3125
v  -0.1333 0.0243 19.3869
v  -0.1087 0.0243 19.3442
v  -0.1419 0.0243 19.4354
v  -0.1333 0.0243 19.4839
v  -0.0709 0.0243 19.5582
v  -0.1087 0.0243 19.5266
v  -0.0246 0.0243 19.5751
v  0.0246 0.0243 19.5751
v  0.1087 0.0243 19.5266
v  0.0709 0.0243 19.5582
v  0.1333 0.0243 19.4839
v  0.1333 0.0243 19.3869
v  0.1333 -0.0243 19.4839
v  0.1419 -0.0243 19.4354
v  0.1087 -0.0243 19.5266
v  0.0709 -0.0243 19.5582
v  0.0246 -0.0243 19.5751
v  -0.0246 -0.0243 19.5751
v  -0.0709 -0.0243 19.5582
v  -0.1087 -0.0243 19.5266
v  -0.1333 -0.0243 19.4839
v  -0.1419 -0.0243 19.4354
v  -0.1333 -0.0243 19.3869
v  -0.1087 -0.0243 19.3442
v  -0.0709 -0.0243 19.3125
v  -0.0246 -0.0243 19.2957
v  0.0246 -0.0243 19.2957
v  0.0709 -0.0243 19.3125
v  0.1087 -0.0243 19.3442
v  0.1333 -0.0243 19.3869
v  0.1233 -0.0112 19.4803
v  0.1313 -0.0112 19.4354
v  0.1005 -0.0112 19.5197
v  0.0656 -0.0112 19.5490
v  0.0228 -0.0112 19.5646
v  -0.0228 -0.0112 19.5646
v  -0.0656 -0.0112 19.5490
v  -0.1005 -0.0112 19.5197
v  -0.1233 -0.0112 19.4803
v  -0.1313 -0.0112 19.4354
v  -0.1233 -0.0112 19.3905
v  -0.1005 -0.0112 19.3510
v  -0.0656 -0.0112 19.3217
v  -0.0228 -0.0112 19.3061
v  0.0228 -0.0112 19.3061
v  0.0656 -0.0112 19.3217
v  0.1005 -0.0112 19.3510
v  0.1233 -0.0112 19.3905
v  0.0783 0.0003 19.4354
v  0.0736 0.0003 19.4622
v  0.0600 0.0003 19.4857
v  0.0600 0.0003 19.3850
v  0.0392 0.0003 19.5032
v  0.0136 0.0003 19.5125
v  -0.0392 0.0003 19.5032
v  -0.0136 0.0003 19.5125
v  -0.0600 0.0003 19.4857
v  -0.0736 0.0003 19.4622
v  -0.0736 0.0003 19.4086
v  -0.0783 0.0003 19.4354
v  -0.0600 0.0003 19.3850
v  -0.0392 0.0003 19.3676
v  0.0136 0.0003 19.3583
v  -0.0136 0.0003 19.3583
v  0.0392 0.0003 19.3676
v  0.0736 0.0003 19.4086
v  0.1233 0.0003 19.4803
v  0.1313 0.0003 19.4354
v  0.0995 -0.0243 19.4354
v  0.0935 -0.0243 19.4694
v  0.1005 0.0003 19.5197
v  0.0762 -0.0243 19.4993
v  0.0656 0.0003 19.5490
v  0.0497 -0.0243 19.5215
v  0.0228 0.0003 19.5646
v  0.0173 -0.0243 19.5334
v  -0.0228 0.0003 19.5646
v  -0.0173 -0.0243 19.5334
v  -0.0656 0.0003 19.5490
v  -0.0497 -0.0243 19.5215
v  -0.1005 0.0003 19.5197
v  -0.0762 -0.0243 19.4993
v  -0.1233 0.0003 19.4803
v  -0.0935 -0.0243 19.4694
v  -0.1313 0.0003 19.4354
v  -0.0995 -0.0243 19.4354
v  -0.1233 0.0003 19.3905
v  -0.0935 -0.0243 19.4013
v  -0.1005 0.0003 19.3510
v  -0.0762 -0.0243 19.3714
v  -0.0656 0.0003 19.3217
v  -0.0497 -0.0243 19.3492
v  -0.0228 0.0003 19.3061
v  -0.0173 -0.0243 19.3374
v  0.0228 0.0003 19.3061
v  0.0173 -0.0243 19.3374
v  0.0656 0.0003 19.3217
v  0.0497 -0.0243 19.3492
v  0.1005 0.0003 19.3510
v  0.0762 -0.0243 19.3714
v  0.1233 0.0003 19.3905
v  0.0935 -0.0243 19.4013
# 108 vertices

vn 0.5686 0.6701 -0.4771
vn 0.3711 0.6701 -0.6429
vn 0.1289 0.6700 -0.7311
vn 0.7423 0.6701 -0.0000
vn -0.1289 0.6700 -0.7311
vn -0.3712 0.6700 -0.6429
vn -0.6976 0.6700 -0.2539
vn -0.5687 0.6700 -0.4772
vn -0.7423 0.6701 -0.0000
vn -0.6975 0.6701 0.2539
vn -0.3712 0.6701 0.6428
vn -0.5687 0.6700 0.4772
vn -0.1289 0.6701 0.7310
vn 0.1289 0.6700 0.7311
vn 0.5687 0.6700 0.4772
vn 0.3712 0.6700 0.6429
vn 0.6975 0.6701 0.2539
vn 0.6976 0.6700 -0.2539
vn 0.2119 -0.9742 0.0772
vn 0.2255 -0.9742 -0.0001
vn 0.1731 -0.9741 0.1452
vn 0.1130 -0.9741 0.1957
vn 0.0392 -0.9741 0.2225
vn -0.0391 -0.9742 0.2221
vn -0.1128 -0.9742 0.1952
vn -0.1731 -0.9741 0.1452
vn -0.2119 -0.9742 0.0772
vn -0.2255 -0.9742 -0.0001
vn -0.2123 -0.9741 -0.0773
vn -0.1731 -0.9741 -0.1452
vn -0.1130 -0.9741 -0.1957
vn -0.0392 -0.9741 -0.2225
vn 0.0392 -0.9741 -0.2225
vn 0.1127 -0.9742 -0.1953
vn 0.1728 -0.9742 -0.1449
vn 0.2123 -0.9741 -0.0773
vn -0.2716 -0.9573 -0.0988
vn -0.2890 -0.9573 -0.0000
vn -0.2214 -0.9573 -0.1858
vn -0.1445 -0.9573 -0.2503
vn -0.0502 -0.9573 -0.2846
vn 0.0502 -0.9573 -0.2846
vn 0.1445 -0.9573 -0.2503
vn 0.2214 -0.9573 -0.1858
vn 0.2716 -0.9573 -0.0988
vn 0.2890 -0.9573 -0.0000
vn 0.2716 -0.9573 0.0988
vn 0.2214 -0.9573 0.1858
vn 0.1445 -0.9573 0.2503
vn 0.0502 -0.9573 0.2846
vn -0.0502 -0.9573 0.2846
vn -0.1445 -0.9573 0.2503
vn -0.2214 -0.9573 0.1858
vn -0.2716 -0.9573 0.0988
vn 0.0000 -1.0000 -0.0000
vn -0.8010 -0.5230 -0.2915
vn -0.8524 -0.5230 0.0000
vn -0.3939 -0.9192 -0.0000
vn -0.3701 -0.9192 -0.1347
vn -0.6529 -0.5230 -0.5479
vn -0.3017 -0.9192 -0.2532
vn -0.4262 -0.5230 -0.7382
vn -0.1969 -0.9192 -0.3411
vn -0.1480 -0.5230 -0.8394
vn -0.0684 -0.9192 -0.3879
vn 0.1480 -0.5230 -0.8394
vn 0.0684 -0.9192 -0.3879
vn 0.4262 -0.5230 -0.7382
vn 0.1969 -0.9192 -0.3411
vn 0.6529 -0.5230 -0.5479
vn 0.3017 -0.9192 -0.2532
vn 0.8010 -0.5230 -0.2915
vn 0.3701 -0.9192 -0.1347
vn 0.8524 -0.5230 -0.0000
vn 0.3939 -0.9192 0.0000
vn 0.8010 -0.5230 0.2915
vn 0.3701 -0.9192 0.1347
vn 0.6529 -0.5230 0.5479
vn 0.3017 -0.9192 0.2532
vn 0.4262 -0.5230 0.7382
vn 0.1969 -0.9192 0.3411
vn 0.1480 -0.5230 0.8394
vn 0.0684 -0.9192 0.3879
vn -0.1480 -0.5230 0.8394
vn -0.0684 -0.9192 0.3879
vn -0.4262 -0.5230 0.7382
vn -0.1969 -0.9192 0.3411
vn -0.6529 -0.5230 0.5479
vn -0.3017 -0.9192 0.2532
vn -0.8010 -0.5230 0.2915
vn -0.3701 -0.9192 0.1347
# 91 vertex normals

vt 0.1953 0.0000 -0.3473
vt 0.0874 0.0000 -0.6527
vt 0.0292 0.0000 -0.8794
vt 0.7500 0.0000 1.0000
vt 0.0278 0.0000 -1.0000
vt 0.0833 0.0000 -1.0000
vt 0.3325 0.0000 -0.6527
vt 0.1891 0.0000 -0.8794
vt 0.4960 0.0000 -0.3473
vt 0.6600 0.0000 0.0000
vt 0.9126 0.0000 0.6527
vt 0.8047 0.0000 0.3473
vt 0.9708 0.0000 0.8794
vt 0.9722 0.0000 1.0000
vt 0.8611 0.0000 1.0000
vt 0.9167 0.0000 1.0000
vt 0.8056 0.0000 1.0000
vt 0.3400 0.0000 0.0000
vt 0.8056 1.0000 1.0000
vt 0.7500 1.0000 1.0000
vt 0.8611 1.0000 1.0000
vt 0.9167 1.0000 1.0000
vt 0.9722 1.0000 1.0000
vt 0.0278 1.0000 1.0000
vt -0.0278 1.0000 1.0000
vt -0.0278 0.0000 1.0000
vt 0.0278 0.0000 1.0000
vt 0.0833 1.0000 1.0000
vt 0.0833 0.0000 1.0000
vt 0.1389 1.0000 1.0000
vt 0.1389 0.0000 1.0000
vt 0.1944 1.0000 1.0000
vt 0.1944 0.0000 1.0000
vt 0.2500 1.0000 1.0000
vt 0.2500 0.0000 1.0000
vt 0.3056 1.0000 1.0000
vt 0.3056 0.0000 1.0000
vt 0.3611 1.0000 1.0000
vt 0.3611 0.0000 1.0000
vt 0.4167 1.0000 1.0000
vt 0.4167 0.0000 1.0000
vt 0.4722 1.0000 1.0000
vt 0.4722 0.0000 1.0000
vt 0.5278 1.0000 1.0000
vt 0.5278 0.0000 1.0000
vt 0.5833 1.0000 1.0000
vt 0.5833 0.0000 1.0000
vt 0.6389 1.0000 1.0000
vt 0.6389 0.0000 1.0000
vt 0.6944 1.0000 1.0000
vt 0.6944 0.0000 1.0000
vt 0.9708 1.0000 0.8794
vt 0.9126 1.0000 0.6527
vt 0.8047 1.0000 0.3473
vt 0.6600 1.0000 0.0000
vt 0.4960 1.0000 -0.3473
vt 0.3325 1.0000 -0.6527
vt 0.1891 1.0000 -0.8794
vt 0.0833 1.0000 -1.0000
vt 0.0278 1.0000 -1.0000
vt 0.0292 1.0000 -0.8794
vt 0.0874 1.0000 -0.6527
vt 0.1953 1.0000 -0.3473
# 63 texture coords

o light_base___light
g light_base___light
usemtl spot_light_wire_177088027
s 1
f 1/1/1 2/2/2 3/3/3 4/4/4 
f 3/3/3 5/5/5 6/6/6 7/7/7 
f 6/6/6 8/8/8 7/7/7 
f 7/7/7 9/9/9 10/10/10 11/11/11 
f 10/10/10 12/12/12 11/11/11 
f 11/11/11 13/13/13 14/14/14 15/15/15 
f 14/14/14 16/16/16 15/15/15 
f 11/11/11 15/15/15 3/3/3 7/7/7 
f 15/15/15 17/17/17 4/4/4 3/3/3 
f 18/18/18 1/1/1 4/4/4 
s 8
f 19/19/19 20/20/20 4/4/4 17/17/17 
f 21/21/21 19/19/19 17/17/17 15/15/15 
f 22/22/22 21/21/21 15/15/15 16/16/16 
f 23/23/23 22/22/22 16/16/16 14/14/14 
f 24/24/24 23/25/23 14/26/14 13/27/13 
f 25/28/25 24/24/24 13/27/13 11/29/11 
f 26/30/26 25/28/25 11/29/11 12/31/12 
f 27/32/27 26/30/26 12/31/12 10/33/10 
f 28/34/28 27/32/27 10/33/10 9/35/9 
f 29/36/29 28/34/28 9/35/9 7/37/7 
f 30/38/30 29/36/29 7/37/7 8/39/8 
f 31/40/31 30/38/30 8/39/8 6/41/6 
f 32/42/32 31/40/31 6/41/6 5/43/5 
f 33/44/33 32/42/32 5/43/5 3/45/3 
f 34/46/34 33/44/33 3/45/3 2/47/2 
f 35/48/35 34/46/34 2/47/2 1/49/1 
f 36/50/36 35/48/35 1/49/1 18/51/18 
f 20/20/20 36/50/36 18/51/18 4/4/4 
s off
f 37/19/37 38/20/38 20/20/20 19/19/19 
f 39/21/39 37/19/37 19/19/19 21/21/21 
f 40/22/40 39/21/39 21/21/21 22/22/22 
f 41/23/41 40/22/40 22/22/22 23/23/23 
f 42/52/42 41/23/41 23/23/23 24/52/24 
f 43/53/43 42/52/42 24/52/24 25/53/25 
f 44/54/44 43/53/43 25/53/25 26/54/26 
f 45/55/45 44/54/44 26/54/26 27/55/27 
f 46/56/46 45/55/45 27/55/27 28/56/28 
f 47/57/47 46/56/46 28/56/28 29/57/29 
f 48/58/48 47/57/47 29/57/29 30/58/30 
f 49/59/49 48/58/48 30/58/30 31/59/31 
f 50/60/50 49/59/49 31/59/31 32/60/32 
f 51/61/51 50/60/50 32/60/32 33/61/33 
f 52/62/52 51/61/51 33/61/33 34/62/34 
f 53/63/53 52/62/52 34/62/34 35/63/35 
f 54/50/54 53/63/53 35/63/35 36/50/36 
f 38/20/38 54/50/54 36/50/36 20/20/20 
s 1
f 55/20/55 56/19/55 57/21/55 58/63/55 
f 57/21/55 59/22/55 60/23/55 61/53/55 
f 60/23/55 62/52/55 61/53/55 
f 61/53/55 63/54/55 64/55/55 65/57/55 
f 64/55/55 66/56/55 65/57/55 
f 65/57/55 67/58/55 68/59/55 69/61/55 
f 68/59/55 70/60/55 69/61/55 
f 65/57/55 69/61/55 57/21/55 61/53/55 
f 69/61/55 71/62/55 58/63/55 57/21/55 
f 72/50/55 55/20/55 58/63/55 
s off
f 73/19/56 74/20/57 75/20/58 76/19/59 
f 77/21/60 73/19/56 76/19/59 78/21/61 
f 79/22/62 77/21/60 78/21/61 80/22/63 
f 81/23/64 79/22/62 80/22/63 82/23/65 
f 83/52/66 81/23/64 82/23/65 84/52/67 
f 85/53/68 83/52/66 84/52/67 86/53/69 
f 87/54/70 85/53/68 86/53/69 88/54/71 
f 89/55/72 87/54/70 88/54/71 90/55/73 
f 91/56/74 89/55/72 90/55/73 92/56/75 
f 93/57/76 91/56/74 92/56/75 94/57/77 
f 95/58/78 93/57/76 94/57/77 96/58/79 
f 97/59/80 95/58/78 96/58/79 98/59/81 
f 99/60/82 97/59/80 98/59/81 100/60/83 
f 101/61/84 99/60/82 100/60/83 102/61/85 
f 103/62/86 101/61/84 102/61/85 104/62/87 
f 105/63/88 103/62/86 104/62/87 106/63/89 
f 107/50/90 105/63/88 106/63/89 108/50/91 
f 74/20/57 107/50/90 108/50/91 75/20/58 
s 1
f 76/19/59 75/20/58 38/20/38 37/19/37 
f 78/21/61 76/19/59 37/19/37 39/21/39 
f 80/22/63 78/21/61 39/21/39 40/22/40 
f 82/23/65 80/22/63 40/22/40 41/23/41 
f 84/52/67 82/23/65 41/23/41 42/52/42 
f 86/53/69 84/52/67 42/52/42 43/53/43 
f 88/54/71 86/53/69 43/53/43 44/54/44 
f 90/55/73 88/54/71 44/54/44 45/55/45 
f 92/56/75 90/55/73 45/55/45 46/56/46 
f 94/57/77 92/56/75 46/56/46 47/57/47 
f 96/58/79 94/57/77 47/57/47 48/58/48 
f 98/59/81 96/58/79 48/58/48 49/59/49 
f 100/60/83 98/59/81 49/59/49 50/60/50 
f 102/61/85 100/60/83 50/60/50 51/61/51 
f 104/62/87 102/61/85 51/61/51 52/62/52 
f 106/63/89 104/62/87 52/62/52 53/63/53 
f 108/50/91 106/63/89 53/63/53 54/50/54 
f 75/20/58 108/50/91 54/50/54 38/20/38 
s off
f 55/20/55 72/50/55 107/50/90 74/20/57 
f 56/19/55 55/20/55 74/20/57 73/19/56 
f 57/21/55 56/19/55 73/19/56 77/21/60 
f 59/22/55 57/21/55 77/21/60 79/22/62 
f 60/23/55 59/22/55 79/22/62 81/23/64 
f 62/52/55 60/23/55 81/23/64 83/52/66 
f 61/53/55 62/52/55 83/52/66 85/53/68 
f 63/54/55 61/53/55 85/53/68 87/54/70 
f 64/55/55 63/54/55 87/54/70 89/55/72 
f 66/56/55 64/55/55 89/55/72 91/56/74 
f 65/57/55 66/56/55 91/56/74 93/57/76 
f 67/58/55 65/57/55 93/57/76 95/58/78 
f 68/59/55 67/58/55 95/58/78 97/59/80 
f 70/60/55 68/59/55 97/59/80 99/60/82 
f 69/61/55 70/60/55 99/60/82 101/61/84 
f 71/62/55 69/61/55 101/61/84 103/62/86 
f 58/63/55 71/62/55 103/62/86 105/63/88 
f 72/50/55 58/63/55 105/63/88 107/50/90 
# 102 polygons - 8 triangles

#
# object glass_over_light
#

v  0.0844 0.0000 19.4354
v  0.0793 0.0000 19.4642
v  0.0646 0.0000 19.4896
v  0.0646 0.0000 19.3812
v  0.0422 0.0000 19.5084
v  0.0146 0.0000 19.5184
v  -0.0422 0.0000 19.5084
v  -0.0146 0.0000 19.5184
v  -0.0646 0.0000 19.4896
v  -0.0793 0.0000 19.4642
v  -0.0793 0.0000 19.4065
v  -0.0844 0.0000 19.4354
v  -0.0646 0.0000 19.3812
v  -0.0422 0.0000 19.3623
v  0.0146 0.0000 19.3523
v  -0.0146 0.0000 19.3523
v  0.0422 0.0000 19.3623
v  0.0793 0.0000 19.4065
v  0.1329 0.0000 19.3870
v  0.1414 0.0000 19.4354
v  0.1329 0.0000 19.4837
v  0.1083 0.0000 19.5263
v  0.0707 0.0000 19.5578
v  0.0246 0.0000 19.5746
v  -0.0246 0.0000 19.5746
v  -0.0707 0.0000 19.5578
v  -0.1083 0.0000 19.5263
v  -0.1329 0.0000 19.4837
v  -0.1414 0.0000 19.4354
v  -0.1329 0.0000 19.3870
v  -0.1083 0.0000 19.3445
v  -0.0707 0.0000 19.3129
v  -0.0246 0.0000 19.2961
v  0.0246 0.0000 19.2961
v  0.0707 0.0000 19.3129
v  0.1083 0.0000 19.3445
v  0.1428 0.0000 19.4354
v  0.1342 0.0000 19.3865
v  0.1342 0.0000 19.4842
v  0.1094 0.0000 19.5271
v  0.0714 0.0000 19.5590
v  0.0248 0.0000 19.5760
v  -0.0248 0.0000 19.5760
v  -0.0714 0.0000 19.5590
v  -0.1094 0.0000 19.5271
v  -0.1342 0.0000 19.4842
v  -0.1428 0.0000 19.4354
v  -0.1342 0.0000 19.3865
v  -0.1094 0.0000 19.3436
v  -0.0714 0.0000 19.3117
v  -0.0248 0.0000 19.2948
v  0.0248 0.0000 19.2948
v  0.0714 0.0000 19.3117
v  0.1094 0.0000 19.3436
# 54 vertices

vn 0.0000 -1.0000 -0.0000
# 1 vertex normals

vt 0.7500 1.0000 1.0000
vt 0.8056 1.0000 1.0000
vt 0.8611 1.0000 1.0000
vt 0.1953 1.0000 -0.3473
vt 0.9167 1.0000 1.0000
vt 0.9722 1.0000 1.0000
vt 0.9126 1.0000 0.6527
vt 0.9708 1.0000 0.8794
vt 0.8047 1.0000 0.3473
vt 0.6600 1.0000 0.0000
vt 0.3325 1.0000 -0.6527
vt 0.4960 1.0000 -0.3473
vt 0.1891 1.0000 -0.8794
vt 0.0833 1.0000 -1.0000
vt 0.0292 1.0000 -0.8794
vt 0.0278 1.0000 -1.0000
vt 0.0874 1.0000 -0.6527
vt 0.6944 1.0000 1.0000
# 18 texture coords

o glass_over_light
g glass_over_light
usemtl spot_light_glass
s 1
f 109/64/92 110/65/92 111/66/92 112/67/92 
f 111/66/92 113/68/92 114/69/92 115/70/92 
f 114/69/92 116/71/92 115/70/92 
f 115/70/92 117/72/92 118/73/92 119/74/92 
f 118/73/92 120/75/92 119/74/92 
f 119/74/92 121/76/92 122/77/92 123/78/92 
f 122/77/92 124/79/92 123/78/92 
f 119/74/92 123/78/92 111/66/92 115/70/92 
f 123/78/92 125/80/92 112/67/92 111/66/92 
f 126/81/92 109/64/92 112/67/92 
s off
f 109/64/92 126/81/92 127/81/92 128/64/92 
f 129/65/92 110/65/92 109/64/92 128/64/92 
f 111/66/92 110/65/92 129/65/92 130/66/92 
f 113/68/92 111/66/92 130/66/92 131/68/92 
f 114/69/92 113/68/92 131/68/92 132/69/92 
f 116/71/92 114/69/92 132/69/92 133/71/92 
f 115/70/92 116/71/92 133/71/92 134/70/92 
f 117/72/92 115/70/92 134/70/92 135/72/92 
f 117/72/92 135/72/92 136/73/92 118/73/92 
f 120/75/92 118/73/92 136/73/92 137/75/92 
f 119/74/92 120/75/92 137/75/92 138/74/92 
f 121/76/92 119/74/92 138/74/92 139/76/92 
f 122/77/92 121/76/92 139/76/92 140/77/92 
f 124/79/92 122/77/92 140/77/92 141/79/92 
f 123/78/92 124/79/92 141/79/92 142/78/92 
f 125/80/92 123/78/92 142/78/92 143/80/92 
f 112/67/92 125/80/92 143/80/92 144/67/92 
f 127/81/92 126/81/92 112/67/92 144/67/92 
f 145/64/92 128/64/92 127/81/92 146/81/92 
f 128/64/92 145/64/92 147/65/92 129/65/92 
f 147/65/92 148/66/92 130/66/92 129/65/92 
f 148/66/92 149/68/92 131/68/92 130/66/92 
f 149/68/92 150/69/92 132/69/92 131/68/92 
f 150/69/92 151/71/92 133/71/92 132/69/92 
f 151/71/92 152/70/92 134/70/92 133/71/92 
f 152/70/92 153/72/92 135/72/92 134/70/92 
f 153/72/92 154/73/92 136/73/92 135/72/92 
f 154/73/92 155/75/92 137/75/92 136/73/92 
f 155/75/92 156/74/92 138/74/92 137/75/92 
f 156/74/92 157/76/92 139/76/92 138/74/92 
f 157/76/92 158/77/92 140/77/92 139/76/92 
f 158/77/92 159/79/92 141/79/92 140/77/92 
f 159/79/92 160/78/92 142/78/92 141/79/92 
f 160/78/92 161/80/92 143/80/92 142/78/92 
f 161/80/92 162/67/92 144/67/92 143/80/92 
f 162/67/92 146/81/92 127/81/92 144/67/92 
# 42 polygons - 4 triangles

