# 3ds Max Wavefront OBJ Exporter v0.97b - (c)2007 guruware
# File Created: 11.01.2018 16:50:27

mtllib Building_2_OBJ.mtl

#
# object Box002
#

v  -1476.0552 17.0366 1360.0688
v  -1476.0552 17.0366 -1339.9312
v  -176.0552 17.0366 -1339.9312
v  -176.0552 17.0366 1360.0688
v  -1476.0552 47.0366 1360.0688
v  -176.0552 47.0366 1360.0688
v  -176.0552 47.0366 -1339.9312
v  -1476.0552 47.0366 -1339.9312
v  -192.6683 -481.7574 -387.3438
v  -192.6682 19.2525 -387.3438
v  -192.6683 19.2525 -1287.3438
v  -192.6683 -481.7574 -1287.3438
v  -182.6683 -481.7574 -387.3438
v  -182.6683 -481.7574 -1287.3438
v  -182.6683 19.2525 -1287.3438
v  -182.6683 19.2525 -387.3438
v  -214.2792 -157.5884 410.6755
v  -214.2792 20.1894 410.6755
v  -214.2792 20.1894 250.6755
v  -214.2792 -157.5884 250.6755
v  -214.2792 20.1894 90.6755
v  -214.2792 -157.5884 90.6755
v  -214.2792 20.1894 -69.3245
v  -214.2792 -157.5884 -69.3245
v  -214.2792 20.1894 -229.3245
v  -214.2792 -157.5884 -229.3245
v  -214.2792 20.1894 -389.3245
v  -214.2792 -157.5884 -389.3245
v  -144.2792 -157.5884 410.6755
v  -144.2792 -157.5884 250.6755
v  -144.2792 20.1894 250.6755
v  -144.2792 20.1894 410.6755
v  -144.2792 -157.5884 90.6755
v  -144.2792 20.1894 90.6755
v  -144.2792 -157.5884 -69.3245
v  -144.2792 20.1894 -69.3245
v  -144.2792 -157.5884 -229.3245
v  -144.2792 20.1894 -229.3245
v  -144.2792 -157.5884 -389.3245
v  -144.2792 20.1894 -389.3245
v  -214.2792 -483.9777 410.6755
v  -214.2792 -483.9777 250.6755
v  -144.2792 -483.9777 250.6755
v  -144.2792 -483.9777 410.6755
v  -214.2792 -483.9777 -229.3245
v  -214.2792 -483.9777 -389.3245
v  -144.2792 -483.9777 -389.3245
v  -144.2792 -483.9777 -229.3245
v  -145.1647 -123.3578 428.2595
v  -145.1647 -107.0032 428.2595
v  -145.0805 -107.5778 403.9542
v  -145.0805 -124.1243 403.9542
v  -114.9628 -123.3578 428.2249
v  -115.0469 -124.1243 403.9196
v  -115.0469 -107.5778 403.9196
v  -114.9628 -107.0032 428.2249
v  -125.0469 -124.1243 403.9542
v  -124.9627 -123.3578 428.2595
v  -142.2394 -126.9654 -416.1848
v  -127.8881 -126.9654 -416.1848
v  -127.8881 -149.9875 -416.1848
v  -142.2394 -149.9875 -416.1848
v  -142.3369 33.0245 -388.0545
v  -127.7906 33.0245 -388.0545
v  -127.8881 33.9116 -416.1848
v  -142.2394 33.9116 -416.1848
v  -145.1647 -11.3803 428.2595
v  -124.9627 -11.3803 428.2595
v  -124.9627 7.2819 428.2595
v  -145.1647 7.2819 428.2595
v  -145.0805 -10.8328 403.9542
v  -117.8882 7.6411 -416.2195
v  -117.7907 7.0075 -388.0891
v  -117.7907 -126.3004 -388.0891
v  -117.8882 -126.9654 -416.2195
v  -142.2394 7.6411 -416.1848
v  -127.8881 7.6411 -416.1848
v  -124.9627 -107.0032 428.2595
v  -142.3369 -126.3004 -388.0545
v  -142.3369 -149.1004 -388.0545
v  -117.7907 -149.1004 -388.0891
v  -127.7906 -149.1004 -388.0545
v  -125.0469 8.0483 403.9542
v  -145.0805 8.0483 403.9542
v  -142.3369 7.0075 -388.0545
v  -114.9628 7.2819 428.2249
v  -114.9628 -11.3803 428.2249
v  -115.0469 -10.8328 403.9196
v  -115.0469 8.0483 403.9196
v  -117.8882 33.9116 -416.2195
v  -117.7907 33.0245 -388.0891
v  -125.0469 -10.8328 403.9542
v  -125.0469 -107.5778 403.9542
v  -127.7906 -126.3004 -388.0545
v  -127.7906 7.0075 -388.0545
v  -117.8882 -149.9875 -416.2195
v  -182.9544 -483.4020 -61.9929
v  -182.9544 -143.4020 -61.9929
v  -182.9544 -143.4020 -301.9929
v  -182.9544 -483.4020 -301.9929
v  -172.9544 -483.4020 -61.9929
v  -172.9544 -483.4020 -301.9929
v  -172.9544 -143.4020 -301.9929
v  -172.9544 -143.4020 -61.9929
v  -181.0203 -483.4020 253.2195
v  -181.0203 -143.4020 253.2195
v  -181.0203 -143.4020 13.2195
v  -181.0203 -483.4020 13.2195
v  -171.0203 -483.4020 253.2195
v  -171.0203 -483.4020 13.2195
v  -171.0203 -143.4020 13.2195
v  -171.0203 -143.4020 253.2195
v  -192.6683 -481.7574 1309.2200
v  -192.6682 19.2525 1309.2200
v  -192.6683 19.2525 409.2200
v  -192.6683 -481.7574 409.2200
v  -182.6683 -481.7574 1309.2200
v  -182.6683 -481.7574 409.2200
v  -182.6683 19.2525 409.2200
v  -182.6683 19.2525 1309.2200
v  -236.0505 -481.7574 1346.4651
v  -236.0505 19.2525 1346.4650
v  -1436.0505 19.2525 1346.4651
v  -1436.0505 -481.7574 1346.4652
v  -236.0505 -481.7574 1336.4651
v  -1436.0505 -481.7574 1336.4652
v  -1436.0505 19.2525 1336.4651
v  -236.0505 19.2525 1336.4650
v  -229.9078 -481.7574 -1324.8271
v  -229.9078 19.2525 -1324.8273
v  -1429.9078 19.2525 -1324.8271
v  -1429.9078 -481.7574 -1324.8270
v  -229.9078 -481.7574 -1334.8271
v  -1429.9078 -481.7574 -1334.8270
v  -1429.9078 19.2525 -1334.8271
v  -229.9078 19.2525 -1334.8273
v  -1495.3650 -481.9990 -1285.7557
v  -1495.3650 21.7847 -1285.7557
v  -1495.3650 21.7847 -1355.7557
v  -1495.3650 -481.9990 -1355.7557
v  -1425.3650 -481.9990 -1285.7557
v  -1425.3650 -481.9990 -1355.7557
v  -1425.3650 21.7847 -1355.7557
v  -1425.3650 21.7847 -1285.7557
v  -1495.3650 -481.9990 1368.9006
v  -1495.3650 21.7847 1368.9006
v  -1495.3650 21.7847 1298.9006
v  -1495.3650 -481.9990 1298.9006
v  -1425.3650 -481.9990 1368.9006
v  -1425.3650 -481.9990 1298.9006
v  -1425.3650 21.7847 1298.9006
v  -1425.3650 21.7847 1368.9006
v  -237.0888 -481.9990 -1285.7557
v  -237.0888 21.7847 -1285.7557
v  -237.0888 21.7847 -1355.7557
v  -237.0888 -481.9990 -1355.7557
v  -167.0888 -481.9990 -1285.7557
v  -167.0888 -481.9990 -1355.7557
v  -167.0888 21.7847 -1355.7557
v  -167.0888 21.7847 -1285.7557
v  -237.0888 -481.9990 1368.9006
v  -237.0888 21.7847 1368.9006
v  -237.0888 21.7847 1298.9006
v  -237.0888 -481.9990 1298.9006
v  -167.0888 -481.9990 1368.9006
v  -167.0888 -481.9990 1298.9006
v  -167.0888 21.7847 1298.9006
v  -167.0888 21.7847 1368.9006
# 168 vertices

vn 0.0000 -1.0000 -0.0000
vn 0.0000 1.0000 -0.0000
vn 0.0000 0.0000 1.0000
vn 1.0000 0.0000 -0.0000
vn 0.0000 0.0000 -1.0000
vn -1.0000 0.0000 -0.0000
vn -1.0000 0.0000 0.0000
vn -1.0000 0.0000 -0.0035
vn 1.0000 0.0000 -0.0035
vn 0.0000 -0.9995 0.0315
vn 0.0000 0.9995 0.0315
vn 0.0001 -0.9995 0.0315
vn -0.0035 0.0000 -1.0000
vn 0.0001 0.9995 0.0315
vn 0.0035 0.0000 1.0000
vn -0.0001 -0.9997 -0.0225
vn -0.0001 0.9997 -0.0236
vn -0.0000 -0.0000 -1.0000
# 18 vertex normals

vt 0.6131 0.0076 0.0000
vt 0.6131 0.3521 0.0000
vt 0.4472 0.3521 0.0000
vt 0.4472 0.0076 0.0000
vt 0.6370 0.0051 0.0000
vt 0.8029 0.0051 0.0000
vt 0.8029 0.3496 0.0000
vt 0.6370 0.3496 0.0000
vt 0.4567 0.3741 0.0000
vt 0.6234 0.3741 0.0000
vt 0.6234 0.3780 0.0000
vt 0.4567 0.3780 0.0000
vt 0.4575 0.3562 0.0000
vt 0.8037 0.3562 0.0000
vt 0.8037 0.3600 0.0000
vt 0.4575 0.3600 0.0000
vt 0.4567 0.3690 0.0000
vt 0.6234 0.3690 0.0000
vt 0.6234 0.3729 0.0000
vt 0.4567 0.3729 0.0000
vt 0.4567 0.3639 0.0000
vt 0.8029 0.3639 0.0000
vt 0.8029 0.3678 0.0000
vt 0.4567 0.3678 0.0000
vt 0.4969 0.5352 0.0000
vt 0.4969 0.4656 0.0000
vt 0.6220 0.4656 0.0000
vt 0.6220 0.5352 0.0000
vt 0.4969 0.3933 0.0000
vt 0.6220 0.3933 0.0000
vt 0.6220 0.4630 0.0000
vt 0.4969 0.4630 0.0000
vt 0.4969 0.5379 0.0000
vt 0.6220 0.5379 0.0000
vt 0.6220 0.5393 0.0000
vt 0.4969 0.5393 0.0000
vt 0.4969 0.5501 0.0000
vt 0.5666 0.5501 0.0000
vt 0.5666 0.5515 0.0000
vt 0.4969 0.5515 0.0000
vt 0.4969 0.5420 0.0000
vt 0.6220 0.5420 0.0000
vt 0.6220 0.5434 0.0000
vt 0.4969 0.5434 0.0000
vt 0.4969 0.5461 0.0000
vt 0.5666 0.5461 0.0000
vt 0.5666 0.5474 0.0000
vt 0.4969 0.5474 0.0000
vt 0.0117 0.0562 0.0000
vt 0.0117 0.0108 0.0000
vt 0.0525 0.0108 0.0000
vt 0.0525 0.0562 0.0000
vt 0.0933 0.0108 0.0000
vt 0.0933 0.0562 0.0000
vt 0.1341 0.0108 0.0000
vt 0.1341 0.0562 0.0000
vt 0.1750 0.0108 0.0000
vt 0.1750 0.0562 0.0000
vt 0.2158 0.0108 0.0000
vt 0.2158 0.0562 0.0000
vt 0.2209 0.0941 0.0000
vt 0.2617 0.0941 0.0000
vt 0.2617 0.1395 0.0000
vt 0.2209 0.1395 0.0000
vt 0.3025 0.0941 0.0000
vt 0.3025 0.1395 0.0000
vt 0.3434 0.0941 0.0000
vt 0.3434 0.1395 0.0000
vt 0.3842 0.0941 0.0000
vt 0.3842 0.1395 0.0000
vt 0.4250 0.0941 0.0000
vt 0.4250 0.1395 0.0000
vt 0.0117 0.1445 0.0000
vt 0.0525 0.1445 0.0000
vt 0.0525 0.1624 0.0000
vt 0.0117 0.1624 0.0000
vt 0.0933 0.1445 0.0000
vt 0.0933 0.1624 0.0000
vt 0.1341 0.1445 0.0000
vt 0.1341 0.1624 0.0000
vt 0.1750 0.1445 0.0000
vt 0.1750 0.1624 0.0000
vt 0.2158 0.1445 0.0000
vt 0.2158 0.1624 0.0000
vt 0.0950 0.1675 0.0000
vt 0.1403 0.1675 0.0000
vt 0.1403 0.1853 0.0000
vt 0.0950 0.1853 0.0000
vt 0.0117 0.2134 0.0000
vt 0.0525 0.2134 0.0000
vt 0.0525 0.2312 0.0000
vt 0.0117 0.2312 0.0000
vt 0.0933 0.2134 0.0000
vt 0.0933 0.2312 0.0000
vt 0.1341 0.2134 0.0000
vt 0.1341 0.2312 0.0000
vt 0.1750 0.2134 0.0000
vt 0.1750 0.2312 0.0000
vt 0.2158 0.2134 0.0000
vt 0.2158 0.2312 0.0000
vt 0.2209 0.1445 0.0000
vt 0.2662 0.1445 0.0000
vt 0.2662 0.1624 0.0000
vt 0.2209 0.1624 0.0000
vt 0.0525 0.1395 0.0000
vt 0.0117 0.1395 0.0000
vt 0.0117 0.1853 0.0000
vt 0.0117 0.1675 0.0000
vt 0.2209 0.0108 0.0000
vt 0.2617 0.0108 0.0000
vt 0.3495 0.1445 0.0000
vt 0.3495 0.1624 0.0000
vt 0.2158 0.1395 0.0000
vt 0.1750 0.1395 0.0000
vt 0.3842 0.0108 0.0000
vt 0.4250 0.0108 0.0000
vt 0.5011 0.9311 0.0000
vt 0.5011 0.9216 0.0000
vt 0.5152 0.9220 0.0000
vt 0.5152 0.9315 0.0000
vt 0.5011 0.7422 0.0000
vt 0.5152 0.7417 0.0000
vt 0.5152 0.7513 0.0000
vt 0.5011 0.7516 0.0000
vt 0.5152 0.9536 0.0000
vt 0.5152 0.9652 0.0000
vt 0.5011 0.9652 0.0000
vt 0.5011 0.9535 0.0000
vt 0.3846 0.9674 0.0000
vt 0.3846 0.9757 0.0000
vt 0.3713 0.9757 0.0000
vt 0.3713 0.9674 0.0000
vt 0.5174 0.9797 0.0000
vt 0.5174 0.9881 0.0000
vt 0.5012 0.9880 0.0000
vt 0.5012 0.9797 0.0000
vt 0.3821 0.9201 0.0000
vt 0.3821 0.9318 0.0000
vt 0.3713 0.9318 0.0000
vt 0.3713 0.9201 0.0000
vt 0.5011 0.8663 0.0000
vt 0.5152 0.8660 0.0000
vt 0.9895 0.8179 0.0000
vt 0.9732 0.8176 0.0000
vt 0.9732 0.7405 0.0000
vt 0.9895 0.7401 0.0000
vt 0.4625 0.9674 0.0000
vt 0.4625 0.9757 0.0000
vt 0.4469 0.9201 0.0000
vt 0.4469 0.9318 0.0000
vt 0.4374 0.9318 0.0000
vt 0.4374 0.9201 0.0000
vt 0.9732 0.9328 0.0000
vt 0.9732 0.9460 0.0000
vt 0.9732 0.7273 0.0000
vt 0.9732 0.9552 0.0000
vt 0.9732 0.9636 0.0000
vt 0.9895 0.9780 0.0000
vt 0.9895 0.9897 0.0000
vt 0.9754 0.9897 0.0000
vt 0.9754 0.9781 0.0000
vt 0.9732 0.8407 0.0000
vt 0.9732 0.8557 0.0000
vt 0.5152 0.8551 0.0000
vt 0.5011 0.8177 0.0000
vt 0.5011 0.8069 0.0000
vt 0.5152 0.8072 0.0000
vt 0.5152 0.8182 0.0000
vt 0.5011 0.8556 0.0000
vt 0.9895 0.8331 0.0000
vt 0.9732 0.8326 0.0000
vt 0.4777 0.9674 0.0000
vt 0.4777 0.9757 0.0000
vt 0.9895 0.9332 0.0000
vt 0.9895 0.8553 0.0000
vt 0.9895 0.9465 0.0000
vt 0.9895 0.7268 0.0000
vt 0.9895 0.9552 0.0000
vt 0.9895 0.9635 0.0000
vt 0.9895 0.8402 0.0000
vt 0.5152 0.9710 0.0000
vt 0.5012 0.9710 0.0000
vt 0.9732 0.9694 0.0000
vt 0.9895 0.9693 0.0000
vt 0.3846 0.9815 0.0000
vt 0.3713 0.9815 0.0000
vt 0.4625 0.9815 0.0000
vt 0.4777 0.9815 0.0000
vt 0.5174 0.9939 0.0000
vt 0.5011 0.9938 0.0000
vt 0.9754 0.9955 0.0000
vt 0.9895 0.9955 0.0000
vt 0.3821 0.9376 0.0000
vt 0.3713 0.9376 0.0000
vt 0.4374 0.9376 0.0000
vt 0.4469 0.9376 0.0000
vt 0.3958 0.9773 0.0000
vt 0.4518 0.9773 0.0000
vt 0.4518 0.9831 0.0000
vt 0.3958 0.9831 0.0000
vt 0.3715 0.9302 0.0000
vt 0.4486 0.9302 0.0000
vt 0.4486 0.9360 0.0000
vt 0.3715 0.9360 0.0000
vt 0.8371 0.4500 0.0000
vt 0.9300 0.4500 0.0000
vt 0.9300 0.5156 0.0000
vt 0.8371 0.5156 0.0000
vt 0.9300 0.3798 0.0000
vt 0.9300 0.4455 0.0000
vt 0.8371 0.4455 0.0000
vt 0.8371 0.3798 0.0000
vt 0.8371 0.5202 0.0000
vt 0.9027 0.5202 0.0000
vt 0.9027 0.5229 0.0000
vt 0.8371 0.5229 0.0000
vt 0.8371 0.5353 0.0000
vt 0.9300 0.5353 0.0000
vt 0.9300 0.5380 0.0000
vt 0.8371 0.5380 0.0000
vt 0.9050 0.5202 0.0000
vt 0.9706 0.5202 0.0000
vt 0.9706 0.5229 0.0000
vt 0.9050 0.5229 0.0000
vt 0.8371 0.5252 0.0000
vt 0.9300 0.5252 0.0000
vt 0.9300 0.5280 0.0000
vt 0.8371 0.5280 0.0000
vt 0.8419 0.6282 0.0000
vt 0.9349 0.6282 0.0000
vt 0.9349 0.6938 0.0000
vt 0.8419 0.6938 0.0000
vt 0.9349 0.5580 0.0000
vt 0.9349 0.6236 0.0000
vt 0.8419 0.6236 0.0000
vt 0.8419 0.5580 0.0000
vt 0.8419 0.6984 0.0000
vt 0.9075 0.6984 0.0000
vt 0.9075 0.7011 0.0000
vt 0.8419 0.7011 0.0000
vt 0.8419 0.7135 0.0000
vt 0.9349 0.7135 0.0000
vt 0.9349 0.7162 0.0000
vt 0.8419 0.7162 0.0000
vt 0.9098 0.6984 0.0000
vt 0.9754 0.6984 0.0000
vt 0.9754 0.7011 0.0000
vt 0.9098 0.7011 0.0000
vt 0.8419 0.7034 0.0000
vt 0.9349 0.7034 0.0000
vt 0.9349 0.7062 0.0000
vt 0.8419 0.7062 0.0000
vt 0.6612 0.7106 0.0000
vt 0.6612 0.6410 0.0000
vt 0.7863 0.6410 0.0000
vt 0.7863 0.7106 0.0000
vt 0.6612 0.5687 0.0000
vt 0.7863 0.5687 0.0000
vt 0.7863 0.6383 0.0000
vt 0.6612 0.6383 0.0000
vt 0.6612 0.7133 0.0000
vt 0.7863 0.7133 0.0000
vt 0.7863 0.7147 0.0000
vt 0.6612 0.7147 0.0000
vt 0.6612 0.7255 0.0000
vt 0.7308 0.7255 0.0000
vt 0.7308 0.7269 0.0000
vt 0.6612 0.7269 0.0000
vt 0.6612 0.7173 0.0000
vt 0.7863 0.7173 0.0000
vt 0.7863 0.7187 0.0000
vt 0.6612 0.7187 0.0000
vt 0.6612 0.7214 0.0000
vt 0.7308 0.7214 0.0000
vt 0.7308 0.7228 0.0000
vt 0.6612 0.7228 0.0000
vt 0.4838 0.7100 0.0000
vt 0.4838 0.6440 0.0000
vt 0.6420 0.6440 0.0000
vt 0.6420 0.7100 0.0000
vt 0.4838 0.5750 0.0000
vt 0.6420 0.5750 0.0000
vt 0.6420 0.6411 0.0000
vt 0.4838 0.6411 0.0000
vt 0.4838 0.7130 0.0000
vt 0.6420 0.7130 0.0000
vt 0.6420 0.7143 0.0000
vt 0.4838 0.7143 0.0000
vt 0.4838 0.7257 0.0000
vt 0.5499 0.7257 0.0000
vt 0.5499 0.7270 0.0000
vt 0.4838 0.7270 0.0000
vt 0.4838 0.7172 0.0000
vt 0.6420 0.7172 0.0000
vt 0.6420 0.7185 0.0000
vt 0.4838 0.7185 0.0000
vt 0.4838 0.7215 0.0000
vt 0.5499 0.7215 0.0000
vt 0.5499 0.7228 0.0000
vt 0.4838 0.7228 0.0000
vt 0.6502 0.5173 0.0000
vt 0.6502 0.4513 0.0000
vt 0.8083 0.4513 0.0000
vt 0.8083 0.5173 0.0000
vt 0.6502 0.3823 0.0000
vt 0.8083 0.3823 0.0000
vt 0.8083 0.4483 0.0000
vt 0.6502 0.4483 0.0000
vt 0.6502 0.5202 0.0000
vt 0.8083 0.5202 0.0000
vt 0.8083 0.5215 0.0000
vt 0.6502 0.5215 0.0000
vt 0.6502 0.5330 0.0000
vt 0.7162 0.5330 0.0000
vt 0.7162 0.5343 0.0000
vt 0.6502 0.5343 0.0000
vt 0.6502 0.5245 0.0000
vt 0.8083 0.5245 0.0000
vt 0.8083 0.5258 0.0000
vt 0.6502 0.5258 0.0000
vt 0.6502 0.5287 0.0000
vt 0.7162 0.5287 0.0000
vt 0.7162 0.5300 0.0000
vt 0.6502 0.5300 0.0000
vt 0.0448 0.6733 0.0000
vt 0.3151 0.6733 0.0000
vt 0.3151 0.7109 0.0000
vt 0.0448 0.7109 0.0000
vt 0.4007 0.6316 0.0000
vt 0.4007 0.6692 0.0000
vt 0.1304 0.6692 0.0000
vt 0.1304 0.6316 0.0000
vt 0.0865 0.6316 0.0000
vt 0.1241 0.6316 0.0000
vt 0.1241 0.6692 0.0000
vt 0.0865 0.6692 0.0000
vt 0.0451 0.7153 0.0000
vt 0.3154 0.7153 0.0000
vt 0.3154 0.7528 0.0000
vt 0.0451 0.7528 0.0000
vt 0.0448 0.6316 0.0000
vt 0.0824 0.6316 0.0000
vt 0.0824 0.6692 0.0000
vt 0.0448 0.6692 0.0000
vt 0.0448 0.5899 0.0000
vt 0.3151 0.5899 0.0000
vt 0.3151 0.6274 0.0000
vt 0.0448 0.6274 0.0000
vt 0.0206 0.3349 0.0000
vt 0.2909 0.3349 0.0000
vt 0.2909 0.3724 0.0000
vt 0.0206 0.3724 0.0000
vt 0.3743 0.2931 0.0000
vt 0.3743 0.3307 0.0000
vt 0.1040 0.3307 0.0000
vt 0.1040 0.2931 0.0000
vt 0.0623 0.2931 0.0000
vt 0.0999 0.2931 0.0000
vt 0.0999 0.3307 0.0000
vt 0.0623 0.3307 0.0000
vt 0.0228 0.3764 0.0000
vt 0.2931 0.3764 0.0000
vt 0.2931 0.4139 0.0000
vt 0.0228 0.4139 0.0000
vt 0.0206 0.2931 0.0000
vt 0.0581 0.2931 0.0000
vt 0.0581 0.3307 0.0000
vt 0.0206 0.3307 0.0000
vt 0.0206 0.2514 0.0000
vt 0.2909 0.2514 0.0000
vt 0.2909 0.2890 0.0000
vt 0.0206 0.2890 0.0000
vt 0.0486 0.8390 0.0000
vt 0.3189 0.8390 0.0000
vt 0.3189 0.8765 0.0000
vt 0.0486 0.8765 0.0000
vt 0.4024 0.7972 0.0000
vt 0.4024 0.8348 0.0000
vt 0.1320 0.8348 0.0000
vt 0.1320 0.7972 0.0000
vt 0.0903 0.7972 0.0000
vt 0.1279 0.7972 0.0000
vt 0.1279 0.8348 0.0000
vt 0.0903 0.8348 0.0000
vt 0.0542 0.8819 0.0000
vt 0.3245 0.8819 0.0000
vt 0.3245 0.9195 0.0000
vt 0.0542 0.9195 0.0000
vt 0.0486 0.7972 0.0000
vt 0.0861 0.7972 0.0000
vt 0.0861 0.8348 0.0000
vt 0.0486 0.8348 0.0000
vt 0.0486 0.7555 0.0000
vt 0.3189 0.7555 0.0000
vt 0.3189 0.7931 0.0000
vt 0.0486 0.7931 0.0000
vt 0.0277 0.5027 0.0000
vt 0.2980 0.5027 0.0000
vt 0.2980 0.5402 0.0000
vt 0.0277 0.5402 0.0000
vt 0.3815 0.4609 0.0000
vt 0.3815 0.4985 0.0000
vt 0.1111 0.4985 0.0000
vt 0.1111 0.4609 0.0000
vt 0.0694 0.4609 0.0000
vt 0.1070 0.4609 0.0000
vt 0.1070 0.4985 0.0000
vt 0.0694 0.4985 0.0000
vt 0.0362 0.5452 0.0000
vt 0.3065 0.5452 0.0000
vt 0.3065 0.5828 0.0000
vt 0.0362 0.5828 0.0000
vt 0.0277 0.4609 0.0000
vt 0.0652 0.4609 0.0000
vt 0.0652 0.4985 0.0000
vt 0.0277 0.4985 0.0000
vt 0.0277 0.4192 0.0000
vt 0.2980 0.4192 0.0000
vt 0.2980 0.4568 0.0000
vt 0.0277 0.4568 0.0000
# 420 texture coords

g Box002
usemtl Material__2
s 2
f 1/1/1 2/2/1 3/3/1 4/4/1 
s 4
f 5/5/2 6/6/2 7/7/2 8/8/2 
s 8
f 1/9/3 4/10/3 6/11/3 5/12/3 
s 16
f 4/13/4 3/14/4 7/15/4 6/16/4 
s 32
f 3/17/5 2/18/5 8/19/5 7/20/5 
s 64
f 2/21/6 1/22/6 5/23/6 8/24/6 
s 2
f 9/25/7 10/26/7 11/27/7 12/28/7 
s 4
f 13/29/4 14/30/4 15/31/4 16/32/4 
s 8
f 9/33/1 12/34/1 14/35/1 13/36/1 
s 16
f 12/37/5 11/38/5 15/39/5 14/40/5 
s 32
f 11/41/2 10/42/2 16/43/2 15/44/2 
s 64
f 10/45/3 9/46/3 13/47/3 16/48/3 
s 2
f 17/49/6 18/50/6 19/51/6 20/52/6 
f 20/52/6 19/51/6 21/53/6 22/54/6 
f 22/54/6 21/53/6 23/55/6 24/56/6 
f 24/56/6 23/55/6 25/57/6 26/58/6 
f 26/58/6 25/57/6 27/59/6 28/60/6 
s 4
f 29/61/4 30/62/4 31/63/4 32/64/4 
f 30/62/4 33/65/4 34/66/4 31/63/4 
f 33/65/4 35/67/4 36/68/4 34/66/4 
f 35/67/4 37/69/4 38/70/4 36/68/4 
f 37/69/4 39/71/4 40/72/4 38/70/4 
s 8
f 41/73/1 42/74/1 43/75/1 44/76/1 
f 20/74/1 22/77/1 33/78/1 30/75/1 
f 22/77/1 24/79/1 35/80/1 33/78/1 
f 24/79/1 26/81/1 37/82/1 35/80/1 
f 45/81/1 46/83/1 47/84/1 48/82/1 
s 16
f 28/85/5 27/86/5 40/87/5 39/88/5 
s 32
f 27/89/2 25/90/2 38/91/2 40/92/2 
f 25/90/2 23/93/2 36/94/2 38/91/2 
f 23/93/2 21/95/2 34/96/2 36/94/2 
f 21/95/2 19/97/2 31/98/2 34/96/2 
f 19/97/2 18/99/2 32/100/2 31/98/2 
s 64
f 18/101/3 17/102/3 29/103/3 32/104/3 
s off
f 17/49/6 20/52/6 42/105/6 41/106/6 
f 20/85/5 30/88/5 43/107/5 42/108/5 
f 30/62/4 29/61/4 44/109/4 43/110/4 
f 29/103/3 17/102/3 41/111/3 44/112/3 
f 26/58/6 28/60/6 46/113/6 45/114/6 
f 28/85/5 39/88/5 47/107/5 46/108/5 
f 39/71/4 37/69/4 48/115/4 47/116/4 
f 37/103/3 26/102/3 45/111/3 48/112/3 
s 2
f 49/117/8 50/118/8 51/119/8 52/120/8 
s 4
f 53/121/9 54/122/9 55/123/9 56/124/9 
s 8
f 52/125/10 57/126/10 58/127/10 49/128/10 
s 16
f 59/129/5 60/130/5 61/131/5 62/132/5 
s 32
f 63/133/11 64/134/11 65/135/11 66/136/11 
s 64
f 67/137/3 68/138/3 69/139/3 70/140/3 
s 2
f 67/141/8 71/142/8 51/119/8 50/118/8 
s 4
f 72/143/9 73/144/9 74/145/9 75/146/9 
s 16
f 76/147/5 77/148/5 60/130/5 59/129/5 
s 64
f 49/149/3 58/150/3 78/151/3 50/152/3 
s 2
f 79/153/8 80/154/8 52/120/8 51/119/8 
s 4
f 81/155/9 74/145/9 55/123/9 54/122/9 
s 8
f 80/156/10 82/157/10 57/126/10 52/125/10 
s 32
f 70/158/11 69/159/11 83/160/11 84/161/11 
s 2
f 63/162/8 85/163/8 71/142/8 84/164/8 
s 4
f 86/165/9 87/166/9 88/167/9 89/168/9 
s 64
f 50/152/3 78/151/3 68/138/3 67/137/3 
s 2
f 70/169/8 84/164/8 71/142/8 67/141/8 
s 4
f 72/143/9 90/170/9 91/171/9 73/144/9 
s 16
f 66/172/5 65/173/5 77/148/5 76/147/5 
s 2
f 59/174/8 79/153/8 85/163/8 76/175/8 
s 4
f 56/124/9 55/123/9 88/167/9 87/166/9 
s 32
f 84/161/11 83/160/11 64/134/11 63/133/11 
s 4
f 92/167/9 93/123/9 94/145/9 95/144/9 
s 2
f 59/174/8 62/176/8 80/154/8 79/153/8 
s 4
f 81/155/9 96/177/9 75/146/9 74/145/9 
s 8
f 62/178/10 61/179/10 82/157/10 80/156/10 
s 2
f 63/162/8 66/180/8 76/175/8 85/163/8 
s 4
f 89/168/9 88/167/9 73/144/9 91/171/9 
s 2
f 51/119/8 71/142/8 85/163/8 79/153/8 
s off
f 58/127/12 57/126/12 54/181/12 53/182/12 
f 57/126/12 82/157/12 81/183/12 54/181/12 
f 82/157/12 61/179/12 96/184/12 81/183/12 
f 61/131/13 60/130/13 75/185/13 96/186/13 
f 60/130/13 77/148/13 72/187/13 75/185/13 
f 77/148/13 65/173/13 90/188/13 72/187/13 
f 65/135/14 64/134/14 91/189/14 90/190/14 
f 64/134/14 83/160/14 89/191/14 91/189/14 
f 83/160/14 69/159/14 86/192/14 89/191/14 
f 69/139/15 68/138/15 87/193/15 86/194/15 
f 68/138/15 78/151/15 56/195/15 87/193/15 
f 78/151/15 58/150/15 53/196/15 56/195/15 
f 93/197/13 92/198/13 88/199/13 55/200/13 
f 92/126/16 95/157/16 73/183/16 88/181/16 
f 95/201/15 94/202/15 74/203/15 73/204/15 
f 94/134/17 93/160/17 55/191/17 74/189/17 
s 2
f 97/205/6 98/206/6 99/207/6 100/208/6 
s 4
f 101/209/4 102/210/4 103/211/4 104/212/4 
s 8
f 97/213/1 100/214/1 102/215/1 101/216/1 
s 16
f 100/217/5 99/218/5 103/219/5 102/220/5 
s 32
f 99/221/2 98/222/2 104/223/2 103/224/2 
s 64
f 98/225/3 97/226/3 101/227/3 104/228/3 
s 2
f 105/229/6 106/230/6 107/231/6 108/232/6 
s 4
f 109/233/4 110/234/4 111/235/4 112/236/4 
s 8
f 105/237/1 108/238/1 110/239/1 109/240/1 
s 16
f 108/241/5 107/242/5 111/243/5 110/244/5 
s 32
f 107/245/2 106/246/2 112/247/2 111/248/2 
s 64
f 106/249/3 105/250/3 109/251/3 112/252/3 
s 2
f 113/253/7 114/254/7 115/255/7 116/256/7 
s 4
f 117/257/4 118/258/4 119/259/4 120/260/4 
s 8
f 113/261/1 116/262/1 118/263/1 117/264/1 
s 16
f 116/265/5 115/266/5 119/267/5 118/268/5 
s 32
f 115/269/2 114/270/2 120/271/2 119/272/2 
s 64
f 114/273/3 113/274/3 117/275/3 120/276/3 
s 2
f 121/277/3 122/278/3 123/279/3 124/280/3 
s 4
f 125/281/18 126/282/18 127/283/18 128/284/18 
s 8
f 121/285/1 124/286/1 126/287/1 125/288/1 
s 16
f 124/289/6 123/290/6 127/291/6 126/292/6 
s 32
f 123/293/2 122/294/2 128/295/2 127/296/2 
s 64
f 122/297/4 121/298/4 125/299/4 128/300/4 
s 2
f 129/301/3 130/302/3 131/303/3 132/304/3 
s 4
f 133/305/18 134/306/18 135/307/18 136/308/18 
s 8
f 129/309/1 132/310/1 134/311/1 133/312/1 
s 16
f 132/313/6 131/314/6 135/315/6 134/316/6 
s 32
f 131/317/2 130/318/2 136/319/2 135/320/2 
s 64
f 130/321/4 129/322/4 133/323/4 136/324/4 
s 2
f 137/325/6 138/326/6 139/327/6 140/328/6 
s 4
f 141/329/4 142/330/4 143/331/4 144/332/4 
s 8
f 137/333/1 140/334/1 142/335/1 141/336/1 
s 16
f 140/337/5 139/338/5 143/339/5 142/340/5 
s 32
f 139/341/2 138/342/2 144/343/2 143/344/2 
s 64
f 138/345/3 137/346/3 141/347/3 144/348/3 
s 2
f 145/349/6 146/350/6 147/351/6 148/352/6 
s 4
f 149/353/4 150/354/4 151/355/4 152/356/4 
s 8
f 145/357/1 148/358/1 150/359/1 149/360/1 
s 16
f 148/361/5 147/362/5 151/363/5 150/364/5 
s 32
f 147/365/2 146/366/2 152/367/2 151/368/2 
s 64
f 146/369/3 145/370/3 149/371/3 152/372/3 
s 2
f 153/373/6 154/374/6 155/375/6 156/376/6 
s 4
f 157/377/4 158/378/4 159/379/4 160/380/4 
s 8
f 153/381/1 156/382/1 158/383/1 157/384/1 
s 16
f 156/385/5 155/386/5 159/387/5 158/388/5 
s 32
f 155/389/2 154/390/2 160/391/2 159/392/2 
s 64
f 154/393/3 153/394/3 157/395/3 160/396/3 
s 2
f 161/397/6 162/398/6 163/399/6 164/400/6 
s 4
f 165/401/4 166/402/4 167/403/4 168/404/4 
s 8
f 161/405/1 164/406/1 166/407/1 165/408/1 
s 16
f 164/409/5 163/410/5 167/411/5 166/412/5 
s 32
f 163/413/2 162/414/2 168/415/2 167/416/2 
s 64
f 162/417/3 161/418/3 165/419/3 168/420/3 
# 142 polygons

