# 3ds Max Wavefront OBJ Exporter v0.97b - (c)2007 guruware
# File Created: 11.01.2018 18:21:57

mtllib Flag_OBJ_Main.mtl

#
# object Cylinder001
#

v  44.0672 8.0638 4.4892
v  44.0694 8.0383 4.4950
v  44.0693 8.0400 4.5008
v  44.0669 8.0671 4.5008
v  44.0680 8.0544 4.4790
v  44.0698 8.0336 4.4899
v  44.0693 8.0400 4.4715
v  44.0704 8.0264 4.4861
v  44.0708 8.0222 4.4674
v  44.0712 8.0175 4.4841
v  44.0724 8.0034 4.4674
v  44.0720 8.0081 4.4841
v  44.0740 7.9857 4.4715
v  44.0728 7.9993 4.4861
v  44.0752 7.9713 4.4790
v  44.0734 7.9920 4.4899
v  44.0761 7.9618 4.4892
v  44.0738 7.9873 4.4950
v  44.0763 7.9586 4.5008
v  44.0740 7.9857 4.5008
v  44.0761 7.9618 4.5124
v  44.0738 7.9873 4.5066
v  44.0752 7.9713 4.5226
v  44.0734 7.9920 4.5117
v  44.0740 7.9857 4.5302
v  44.0728 7.9993 4.5155
v  44.0724 8.0034 4.5342
v  44.0720 8.0081 4.5175
v  44.0708 8.0222 4.5342
v  44.0712 8.0175 4.5175
v  44.0693 8.0400 4.5302
v  44.0704 8.0264 4.5155
v  44.0680 8.0544 4.5226
v  44.0698 8.0336 4.5117
v  44.0672 8.0638 4.5124
v  44.0694 8.0383 4.5066
v  44.0716 8.0128 4.5008
v  10.7334 8.1077 4.4892
v  15.9146 5.3451 4.4892
v  15.9159 5.3468 4.5008
v  10.7351 8.1088 4.5008
v  10.7283 8.1048 4.4790
v  15.9109 5.3401 4.4790
v  10.7205 8.1003 4.4715
v  15.9051 5.3324 4.4715
v  10.7109 8.0947 4.4674
v  15.8981 5.3230 4.4674
v  10.7007 8.0889 4.4674
v  15.8906 5.3130 4.4674
v  10.6911 8.0833 4.4715
v  15.8835 5.3036 4.4715
v  10.6833 8.0788 4.4790
v  15.8778 5.2959 4.4790
v  10.6782 8.0759 4.4892
v  15.8740 5.2909 4.4892
v  10.6764 8.0748 4.5008
v  15.8727 5.2892 4.5008
v  10.6782 8.0759 4.5124
v  15.8740 5.2909 4.5124
v  10.6833 8.0788 4.5226
v  15.8778 5.2959 4.5226
v  10.6911 8.0833 4.5302
v  15.8835 5.3036 4.5302
v  10.7007 8.0889 4.5342
v  15.8906 5.3130 4.5342
v  10.7109 8.0947 4.5342
v  15.8981 5.3230 4.5342
v  10.7205 8.1003 4.5302
v  15.9051 5.3324 4.5302
v  10.7283 8.1048 4.5226
v  15.9109 5.3401 4.5226
v  10.7334 8.1077 4.5124
v  15.9146 5.3451 4.5124
v  21.5368 3.6395 4.4892
v  21.5377 3.6418 4.5008
v  21.5342 3.6330 4.4790
v  21.5302 3.6232 4.4715
v  21.5253 3.6110 4.4674
v  21.5202 3.5981 4.4674
v  21.5153 3.5860 4.4715
v  21.5113 3.5761 4.4790
v  21.5087 3.5696 4.4892
v  21.5078 3.5674 4.5008
v  21.5087 3.5696 4.5124
v  21.5113 3.5761 4.5226
v  21.5153 3.5860 4.5302
v  21.5202 3.5981 4.5342
v  21.5253 3.6110 4.5342
v  21.5302 3.6232 4.5302
v  21.5342 3.6330 4.5226
v  21.5368 3.6395 4.5124
v  27.3855 3.0573 4.4892
v  27.3860 3.0599 4.5008
v  27.3839 3.0498 4.4790
v  27.3814 3.0383 4.4715
v  27.3784 3.0242 4.4674
v  27.3752 3.0092 4.4674
v  27.3722 2.9951 4.4715
v  27.3697 2.9836 4.4790
v  27.3681 2.9761 4.4892
v  27.3675 2.9735 4.5008
v  27.3681 2.9761 4.5124
v  27.3697 2.9836 4.5226
v  27.3722 2.9951 4.5302
v  27.3752 3.0092 4.5342
v  27.3784 3.0242 4.5342
v  27.3814 3.0383 4.5302
v  27.3839 3.0498 4.5226
v  27.3855 3.0573 4.5124
v  33.2375 3.6217 4.4892
v  33.2378 3.6246 4.5008
v  33.2368 3.6134 4.4790
v  33.2356 3.6007 4.4715
v  33.2343 3.5851 4.4674
v  33.2328 3.5686 4.4674
v  33.2314 3.5530 4.4715
v  33.2303 3.5403 4.4790
v  33.2295 3.5320 4.4892
v  33.2293 3.5291 4.5008
v  33.2295 3.5320 4.5124
v  33.2303 3.5403 4.5226
v  33.2314 3.5530 4.5302
v  33.2328 3.5686 4.5342
v  33.2343 3.5851 4.5342
v  33.2356 3.6007 4.5302
v  33.2368 3.6134 4.5226
v  33.2375 3.6217 4.5124
v  38.8697 5.3119 4.4892
v  38.8696 5.3150 4.5008
v  38.8697 5.3029 4.4790
v  38.8698 5.2893 4.4715
v  38.8699 5.2725 4.4674
v  38.8701 5.2547 4.4674
v  38.8702 5.2380 4.4715
v  38.8703 5.2243 4.4790
v  38.8703 5.2154 4.4892
v  38.8703 5.2123 4.5008
v  38.8703 5.2154 4.5124
v  38.8703 5.2243 4.5226
v  38.8702 5.2380 4.5302
v  38.8701 5.2547 4.5342
v  38.8699 5.2725 4.5342
v  38.8698 5.2893 4.5302
v  38.8697 5.3029 4.5226
v  38.8697 5.3119 4.5124
# 145 vertices

vn -0.9752 0.2215 0.0001
vn -0.9752 0.2215 0.0000
vn -0.9751 0.2216 0.0000
vn -0.9752 0.2215 -0.0000
vn -0.9751 0.2216 -0.0000
vn -0.9752 0.2215 -0.0001
vn -0.1512 -0.9575 0.2457
vn -0.0545 -0.9654 0.2549
vn -0.0561 -0.9984 0.0000
vn -0.1559 -0.9878 0.0000
vn -0.1340 -0.8463 0.5155
vn -0.0492 -0.8515 0.5220
vn -0.0931 -0.5869 0.8043
vn -0.0392 -0.6118 0.7900
vn -0.0188 -0.1186 0.9928
vn -0.0220 -0.2116 0.9771
vn 0.0628 0.3933 0.9172
vn 0.0049 0.2551 0.9669
vn 0.1160 0.7252 0.6787
vn 0.0346 0.6255 0.7794
vn 0.1429 0.8917 0.4295
vn 0.0567 0.8512 0.5218
vn 0.1549 0.9661 0.2063
vn 0.0687 0.9638 0.2575
vn 0.1583 0.9874 -0.0000
vn 0.0725 0.9974 -0.0000
vn 0.1548 0.9662 -0.2063
vn 0.0688 0.9638 -0.2576
vn 0.1426 0.8918 -0.4294
vn 0.0567 0.8512 -0.5218
vn 0.1158 0.7254 -0.6785
vn 0.0346 0.6255 -0.7794
vn 0.0627 0.3936 -0.9172
vn 0.0049 0.2552 -0.9669
vn -0.0188 -0.1186 -0.9928
vn -0.0220 -0.2115 -0.9771
vn -0.0929 -0.5871 -0.8042
vn -0.0393 -0.6118 -0.7900
vn -0.1337 -0.8465 -0.5154
vn -0.0493 -0.8515 -0.5220
vn -0.1511 -0.9575 -0.2456
vn -0.0545 -0.9655 -0.2548
vn 0.1047 -0.9613 0.2547
vn 0.1085 -0.9941 0.0000
vn 0.0912 -0.8483 0.5215
vn 0.0624 -0.6115 0.7888
vn 0.0154 -0.2166 0.9761
vn -0.0343 0.2482 0.9681
vn -0.0679 0.6215 0.7805
vn -0.0855 0.8490 0.5214
vn -0.0935 0.9619 0.2568
vn -0.0958 0.9954 -0.0000
vn -0.0935 0.9619 -0.2568
vn -0.0855 0.8490 -0.5214
vn -0.0679 0.6215 -0.7805
vn -0.0343 0.2482 -0.9681
vn 0.0154 -0.2166 -0.9761
vn 0.0624 -0.6115 -0.7888
vn 0.0912 -0.8484 -0.5215
vn 0.1047 -0.9613 -0.2547
vn 0.2313 -0.9390 0.2546
vn 0.2394 -0.9709 0.0000
vn 0.2030 -0.8290 0.5211
vn 0.1437 -0.5988 0.7879
vn 0.0459 -0.2152 0.9755
vn -0.0650 0.2391 0.9688
vn -0.1494 0.6064 0.7810
vn -0.1985 0.8302 0.5210
vn -0.2223 0.9407 0.2563
vn -0.2292 0.9734 -0.0000
vn -0.2223 0.9407 -0.2563
vn -0.1985 0.8302 -0.5210
vn -0.1494 0.6064 -0.7810
vn -0.0650 0.2391 -0.9688
vn 0.0459 -0.2151 -0.9755
vn 0.1437 -0.5987 -0.7879
vn 0.2030 -0.8290 -0.5211
vn 0.2313 -0.9390 -0.2546
vn 0.3365 -0.9067 0.2545
vn 0.3482 -0.9374 -0.0000
vn 0.2960 -0.8007 0.5208
vn 0.2113 -0.5791 0.7874
vn 0.0714 -0.2099 0.9751
vn -0.0905 0.2290 0.9692
vn -0.2171 0.5853 0.7812
vn -0.2922 0.8022 0.5207
vn -0.3288 0.9090 0.2560
vn -0.3395 0.9406 -0.0000
vn -0.3288 0.9090 -0.2560
vn -0.2922 0.8022 -0.5207
vn -0.2171 0.5853 -0.7812
vn -0.0905 0.2290 -0.9692
vn 0.0713 -0.2099 -0.9751
vn 0.2113 -0.5791 -0.7874
vn 0.2960 -0.8007 -0.5208
vn 0.3365 -0.9067 -0.2545
vn 0.4282 -0.8671 0.2543
vn 0.4430 -0.8965 0.0000
vn 0.3772 -0.7660 0.5206
vn 0.2703 -0.5546 0.7870
vn 0.0934 -0.2021 0.9749
vn -0.1130 0.2179 0.9694
vn -0.2763 0.5597 0.7813
vn -0.3738 0.7677 0.5205
vn -0.4214 0.8701 0.2558
vn -0.4353 0.9003 -0.0000
vn -0.4214 0.8701 -0.2558
vn -0.3738 0.7677 -0.5205
vn -0.2763 0.5597 -0.7813
vn -0.1130 0.2180 -0.9694
vn 0.0933 -0.2021 -0.9749
vn 0.2703 -0.5546 -0.7870
vn 0.3772 -0.7660 -0.5206
vn 0.4282 -0.8671 -0.2543
vn 0.4692 -0.8485 0.2446
vn 0.4839 -0.8751 0.0000
vn 0.4202 -0.7599 0.4960
vn 0.3221 -0.5826 0.7462
vn 0.1574 -0.2848 0.9456
vn -0.0606 0.1098 0.9921
vn -0.2633 0.4768 0.8386
vn -0.3964 0.7179 0.5723
vn -0.4634 0.8395 0.2838
vn -0.4832 0.8755 -0.0000
vn -0.4634 0.8395 -0.2838
vn -0.3963 0.7179 -0.5723
vn -0.2633 0.4768 -0.8387
vn -0.0606 0.1098 -0.9921
vn 0.1574 -0.2848 -0.9456
vn 0.3220 -0.5826 -0.7463
vn 0.4201 -0.7599 -0.4960
vn 0.4692 -0.8485 -0.2446
# 132 vertex normals

vt 0.8754 0.2037 0.0000
vt 0.8870 0.1734 0.0000
vt 0.8980 0.1756 0.0000
vt 0.8975 0.2080 0.0000
vt 0.8561 0.1921 0.0000
vt 0.8773 0.1676 0.0000
vt 0.8419 0.1747 0.0000
vt 0.8702 0.1589 0.0000
vt 0.8345 0.1534 0.0000
vt 0.8665 0.1483 0.0000
vt 0.8349 0.1308 0.0000
vt 0.8667 0.1370 0.0000
vt 0.8429 0.1098 0.0000
vt 0.8708 0.1265 0.0000
vt 0.8577 0.0928 0.0000
vt 0.8781 0.1180 0.0000
vt 0.8774 0.0819 0.0000
vt 0.8880 0.1125 0.0000
vt 0.8997 0.0783 0.0000
vt 0.8991 0.1107 0.0000
vt 0.9218 0.0826 0.0000
vt 0.9102 0.1129 0.0000
vt 0.9411 0.0942 0.0000
vt 0.9198 0.1187 0.0000
vt 0.9553 0.1117 0.0000
vt 0.9269 0.1274 0.0000
vt 0.9626 0.1330 0.0000
vt 0.9306 0.1381 0.0000
vt 0.9622 0.1555 0.0000
vt 0.9304 0.1493 0.0000
vt 0.9542 0.1765 0.0000
vt 0.9264 0.1598 0.0000
vt 0.9394 0.1935 0.0000
vt 0.9190 0.1683 0.0000
vt 0.9197 0.2044 0.0000
vt 0.9091 0.1738 0.0000
vt 0.8986 0.1432 0.0000
vt 0.0020 0.0075 0.0000
vt 0.2244 0.0150 0.0000
vt 0.0021 0.0075 0.0000
vt 0.2245 0.0150 0.0000
vt 0.0023 0.0075 0.0000
vt 0.2247 0.0150 0.0000
vt 0.0027 0.0075 0.0000
vt 0.2250 0.0150 0.0000
vt 0.0032 0.0075 0.0000
vt 0.2254 0.0150 0.0000
vt 0.0037 0.0076 0.0000
vt 0.2258 0.0150 0.0000
vt 0.0042 0.0076 0.0000
vt 0.2262 0.0150 0.0000
vt 0.0046 0.0076 0.0000
vt 0.2265 0.0150 0.0000
vt 0.0048 0.0076 0.0000
vt 0.2267 0.0150 0.0000
vt 0.0049 0.0076 0.0000
vt 0.2268 0.0151 0.0000
vt 0.4378 0.0179 0.0000
vt 0.4380 0.0179 0.0000
vt 0.4383 0.0179 0.0000
vt 0.4386 0.0179 0.0000
vt 0.4390 0.0179 0.0000
vt 0.4393 0.0179 0.0000
vt 0.4395 0.0179 0.0000
vt 0.4397 0.0179 0.0000
vt 0.4398 0.0179 0.0000
vt 0.6378 0.0162 0.0000
vt 0.6380 0.0161 0.0000
vt 0.6382 0.0161 0.0000
vt 0.6384 0.0161 0.0000
vt 0.6387 0.0161 0.0000
vt 0.6390 0.0161 0.0000
vt 0.6392 0.0161 0.0000
vt 0.6393 0.0161 0.0000
vt 0.6394 0.0161 0.0000
vt 0.7943 0.0123 0.0000
vt 0.7944 0.0123 0.0000
vt 0.7945 0.0123 0.0000
vt 0.7947 0.0123 0.0000
vt 0.7949 0.0122 0.0000
vt 0.7951 0.0122 0.0000
vt 0.7953 0.0122 0.0000
vt 0.7954 0.0122 0.0000
vt 0.9156 0.0069 0.0000
vt 0.9157 0.0069 0.0000
vt 0.9158 0.0069 0.0000
vt 0.9160 0.0069 0.0000
vt 0.9161 0.0069 0.0000
vt 0.9162 0.0069 0.0000
vt 0.9163 0.0069 0.0000
vt 0.9164 0.0069 0.0000
vt 0.9974 0.0020 0.0000
vt 0.9975 0.0020 0.0000
vt 0.9976 0.0020 0.0000
vt 0.9977 0.0020 0.0000
vt 0.9978 0.0020 0.0000
vt 0.9979 0.0020 0.0000
vt 0.9980 0.0020 0.0000
# 98 texture coords

o Cylinder001
g Cylinder001
usemtl Flag_OBJ_Material__2
s 1
f 1/1/1 2/2/2 3/3/3 4/4/3 
f 5/5/4 6/6/3 2/2/2 1/1/1 
f 7/7/5 8/8/3 6/6/3 5/5/4 
f 9/9/2 10/10/4 8/8/3 7/7/5 
f 11/11/2 12/12/4 10/10/4 9/9/2 
f 11/11/2 13/13/3 14/14/5 12/12/4 
f 13/13/3 15/15/2 16/16/3 14/14/5 
f 15/15/2 17/17/6 18/18/4 16/16/3 
f 17/17/6 19/19/5 20/20/5 18/18/4 
f 21/21/1 22/22/2 20/20/5 19/19/5 
f 23/23/4 24/24/3 22/22/2 21/21/1 
f 25/25/5 26/26/3 24/24/3 23/23/4 
f 27/27/2 28/28/4 26/26/3 25/25/5 
f 29/29/2 30/30/4 28/28/4 27/27/2 
f 29/29/2 31/31/3 32/32/5 30/30/4 
f 31/31/3 33/33/2 34/34/3 32/32/5 
f 33/33/2 35/35/6 36/36/4 34/34/3 
f 35/35/6 4/4/3 3/3/3 36/36/4 
f 3/3/3 2/2/2 37/37/2 
f 2/2/2 6/6/3 37/37/2 
f 6/6/3 8/8/3 37/37/2 
f 8/8/3 10/10/4 37/37/2 
f 10/10/4 12/12/4 37/37/2 
f 12/12/4 14/14/5 37/37/2 
f 14/14/5 16/16/3 37/37/2 
f 16/16/3 18/18/4 37/37/2 
f 18/18/4 20/20/5 37/37/2 
f 20/20/5 22/22/2 37/37/2 
f 22/22/2 24/24/3 37/37/2 
f 24/24/3 26/26/3 37/37/2 
f 26/26/3 28/28/4 37/37/2 
f 28/28/4 30/30/4 37/37/2 
f 30/30/4 32/32/5 37/37/2 
f 32/32/5 34/34/3 37/37/2 
f 34/34/3 36/36/4 37/37/2 
f 36/36/4 3/3/3 37/37/2 
s 2
f 38/38/7 39/39/8 40/39/9 41/38/10 
f 42/38/11 43/39/12 39/39/8 38/38/7 
f 44/38/13 45/39/14 43/39/12 42/38/11 
f 46/38/15 47/39/16 45/39/14 44/38/13 
f 48/38/17 49/39/18 47/39/16 46/38/15 
f 50/38/19 51/39/20 49/39/18 48/38/17 
f 52/38/21 53/39/22 51/39/20 50/38/19 
f 54/38/23 55/39/24 53/39/22 52/38/21 
f 56/38/25 57/39/26 55/39/24 54/38/23 
f 58/40/27 59/41/28 57/39/26 56/38/25 
f 60/42/29 61/43/30 59/41/28 58/40/27 
f 62/44/31 63/45/32 61/43/30 60/42/29 
f 64/46/33 65/47/34 63/45/32 62/44/31 
f 66/48/35 67/49/36 65/47/34 64/46/33 
f 68/50/37 69/51/38 67/49/36 66/48/35 
f 70/52/39 71/53/40 69/51/38 68/50/37 
f 72/54/41 73/55/42 71/53/40 70/52/39 
f 41/56/10 40/57/9 73/55/42 72/54/41 
f 39/39/8 74/58/43 75/58/44 40/39/9 
f 43/39/12 76/58/45 74/58/43 39/39/8 
f 45/39/14 77/58/46 76/58/45 43/39/12 
f 47/39/16 78/58/47 77/58/46 45/39/14 
f 49/39/18 79/58/48 78/58/47 47/39/16 
f 51/39/20 80/58/49 79/58/48 49/39/18 
f 53/39/22 81/58/50 80/58/49 51/39/20 
f 55/39/24 82/58/51 81/58/50 53/39/22 
f 57/39/26 83/58/52 82/58/51 55/39/24 
f 59/41/28 84/58/53 83/58/52 57/39/26 
f 61/43/30 85/59/54 84/58/53 59/41/28 
f 63/45/32 86/60/55 85/59/54 61/43/30 
f 65/47/34 87/61/56 86/60/55 63/45/32 
f 67/49/36 88/62/57 87/61/56 65/47/34 
f 69/51/38 89/63/58 88/62/57 67/49/36 
f 71/53/40 90/64/59 89/63/58 69/51/38 
f 73/55/42 91/65/60 90/64/59 71/53/40 
f 40/57/9 75/66/44 91/65/60 73/55/42 
f 74/58/43 92/67/61 93/67/62 75/58/44 
f 76/58/45 94/67/63 92/67/61 74/58/43 
f 77/58/46 95/67/64 94/67/63 76/58/45 
f 78/58/47 96/67/65 95/67/64 77/58/46 
f 79/58/48 97/67/66 96/67/65 78/58/47 
f 80/58/49 98/67/67 97/67/66 79/58/48 
f 81/58/50 99/67/68 98/67/67 80/58/49 
f 82/58/51 100/67/69 99/67/68 81/58/50 
f 83/58/52 101/67/70 100/67/69 82/58/51 
f 84/58/53 102/67/71 101/67/70 83/58/52 
f 85/59/54 103/68/72 102/67/71 84/58/53 
f 86/60/55 104/69/73 103/68/72 85/59/54 
f 87/61/56 105/70/74 104/69/73 86/60/55 
f 88/62/57 106/71/75 105/70/74 87/61/56 
f 89/63/58 107/72/76 106/71/75 88/62/57 
f 90/64/59 108/73/77 107/72/76 89/63/58 
f 91/65/60 109/74/78 108/73/77 90/64/59 
f 75/66/44 93/75/62 109/74/78 91/65/60 
f 92/67/61 110/76/79 111/76/80 93/67/62 
f 94/67/63 112/76/81 110/76/79 92/67/61 
f 95/67/64 113/76/82 112/76/81 94/67/63 
f 96/67/65 114/76/83 113/76/82 95/67/64 
f 97/67/66 115/76/84 114/76/83 96/67/65 
f 98/67/67 116/76/85 115/76/84 97/67/66 
f 99/67/68 117/76/86 116/76/85 98/67/67 
f 100/67/69 118/76/87 117/76/86 99/67/68 
f 101/67/70 119/76/88 118/76/87 100/67/69 
f 102/67/71 120/76/89 119/76/88 101/67/70 
f 103/68/72 121/77/90 120/76/89 102/67/71 
f 104/69/73 122/78/91 121/77/90 103/68/72 
f 105/70/74 123/79/92 122/78/91 104/69/73 
f 106/71/75 124/80/93 123/79/92 105/70/74 
f 107/72/76 125/81/94 124/80/93 106/71/75 
f 108/73/77 126/82/95 125/81/94 107/72/76 
f 109/74/78 127/83/96 126/82/95 108/73/77 
f 93/75/62 111/83/80 127/83/96 109/74/78 
f 110/76/79 128/84/97 129/84/98 111/76/80 
f 112/76/81 130/84/99 128/84/97 110/76/79 
f 113/76/82 131/84/100 130/84/99 112/76/81 
f 114/76/83 132/84/101 131/84/100 113/76/82 
f 115/76/84 133/84/102 132/84/101 114/76/83 
f 116/76/85 134/84/103 133/84/102 115/76/84 
f 117/76/86 135/84/104 134/84/103 116/76/85 
f 118/76/87 136/84/105 135/84/104 117/76/86 
f 119/76/88 137/84/106 136/84/105 118/76/87 
f 120/76/89 138/84/107 137/84/106 119/76/88 
f 121/77/90 139/85/108 138/84/107 120/76/89 
f 122/78/91 140/86/109 139/85/108 121/77/90 
f 123/79/92 141/87/110 140/86/109 122/78/91 
f 124/80/93 142/88/111 141/87/110 123/79/92 
f 125/81/94 143/89/112 142/88/111 124/80/93 
f 126/82/95 144/90/113 143/89/112 125/81/94 
f 127/83/96 145/91/114 144/90/113 126/82/95 
f 111/83/80 129/91/98 145/91/114 127/83/96 
f 128/84/97 1/92/115 4/92/116 129/84/98 
f 130/84/99 5/92/117 1/92/115 128/84/97 
f 131/84/100 7/92/118 5/92/117 130/84/99 
f 132/84/101 9/92/119 7/92/118 131/84/100 
f 133/84/102 11/92/120 9/92/119 132/84/101 
f 134/84/103 13/92/121 11/92/120 133/84/102 
f 135/84/104 15/92/122 13/92/121 134/84/103 
f 136/84/105 17/92/123 15/92/122 135/84/104 
f 137/84/106 19/92/124 17/92/123 136/84/105 
f 138/84/107 21/92/125 19/92/124 137/84/106 
f 139/85/108 23/92/126 21/92/125 138/84/107 
f 140/86/109 25/93/127 23/92/126 139/85/108 
f 141/87/110 27/94/128 25/93/127 140/86/109 
f 142/88/111 29/95/129 27/94/128 141/87/110 
f 143/89/112 31/96/130 29/95/129 142/88/111 
f 144/90/113 33/97/131 31/96/130 143/89/112 
f 145/91/114 35/98/132 33/97/131 144/90/113 
f 129/91/98 4/98/116 35/98/132 145/91/114 
# 126 polygons - 18 triangles

#
# object Object001
#

v  41.7941 6.7803 4.4998
v  42.8370 5.8747 4.4998
v  42.5741 7.2307 4.4998
v  40.4638 6.0782 4.4998
v  41.5067 5.1726 4.4998
v  41.2438 6.5286 4.4998
v  39.0772 5.3320 4.4998
v  40.1201 4.4263 4.4998
v  39.8573 5.7823 4.4998
v  37.7434 4.9071 4.4998
v  38.5163 3.7624 4.4998
v  38.6134 5.1402 4.4998
v  36.3504 4.4907 4.4998
v  37.1233 3.3460 4.4998
v  37.2204 4.7238 4.4998
v  34.8078 4.0258 4.4998
v  35.5808 2.8811 4.4998
v  35.6778 4.2589 4.4998
v  33.2740 3.5904 4.4998
v  34.0470 2.4457 4.4998
v  34.1440 3.8236 4.4998
v  31.8206 3.4239 4.4998
v  32.3831 2.1624 4.4998
v  32.7179 3.5024 4.4998
v  30.3129 3.2918 4.4998
v  30.8754 2.0303 4.4998
v  31.2102 3.3703 4.4998
v  28.8722 3.1247 4.4998
v  29.4346 1.8631 4.4998
v  29.7694 3.2032 4.4998
v  27.4916 3.0043 4.4998
v  28.0540 1.7428 4.4998
v  28.3888 3.0828 4.4998
v  26.0274 3.1472 4.4998
v  26.3623 1.8071 4.4998
v  26.9247 3.0686 4.4998
v  24.4876 3.2838 4.4998
v  24.8224 1.9437 4.4998
v  25.3849 3.2053 4.4998
v  22.9500 3.4309 4.4998
v  23.2848 2.0909 4.4998
v  23.8473 3.3524 4.4998
v  20.6461 3.9078 4.4998
v  20.6227 2.5267 4.4998
v  21.4925 3.5997 4.4998
v  19.3354 4.3001 4.4998
v  19.3120 2.9191 4.4998
v  20.1818 3.9921 4.4998
v  17.7871 4.7804 4.4998
v  17.7637 3.3994 4.4998
v  18.6335 4.4724 4.4998
v  16.2738 5.2311 4.4998
v  16.2504 3.8501 4.4998
v  17.1202 4.9230 4.4998
v  14.9323 5.8317 4.4998
v  14.6695 4.4757 4.4998
v  15.7123 5.3813 4.4998
v  13.5857 6.5586 4.4998
v  13.3229 5.2026 4.4998
v  14.3658 6.1082 4.4998
v  12.2162 7.3018 4.4998
v  11.9534 5.9458 4.4998
v  12.9963 6.8515 4.4998
# 63 vertices

vn 0.0000 0.0000 1.0000
vn 0.0000 0.0000 -1.0000
# 2 vertex normals

vt 0.0308 0.2708 0.0000
vt 0.1629 0.1143 0.0000
vt 0.1554 0.3189 0.0000
vt 0.3384 0.2267 0.0000
vt 0.4705 0.0702 0.0000
vt 0.4630 0.2749 0.0000
vt 0.0311 0.8762 0.0000
vt 0.1633 0.7198 0.0000
vt 0.1557 0.9244 0.0000
vt 0.6629 0.4194 0.0000
vt 0.7889 0.2539 0.0000
vt 0.7917 0.4619 0.0000
vt 0.0091 0.6860 0.0000
vt 0.1351 0.5206 0.0000
vt 0.1379 0.7285 0.0000
vt 0.7920 0.9266 0.0000
vt 0.9180 0.7611 0.0000
vt 0.9208 0.9691 0.0000
vt 0.3411 0.6463 0.0000
vt 0.4671 0.4808 0.0000
vt 0.4699 0.6888 0.0000
vt 0.5449 0.6552 0.0000
vt 0.6620 0.4900 0.0000
vt 0.6717 0.6923 0.0000
vt 0.7415 0.7057 0.0000
vt 0.8586 0.5405 0.0000
vt 0.8683 0.7427 0.0000
vt 0.8188 0.4012 0.0000
vt 0.9359 0.2360 0.0000
vt 0.9456 0.4383 0.0000
vt 0.4108 0.9275 0.0000
vt 0.5279 0.7623 0.0000
vt 0.5375 0.9645 0.0000
vt 0.2052 0.4833 0.0000
vt 0.2149 0.2810 0.0000
vt 0.3320 0.4462 0.0000
vt 0.2580 0.9509 0.0000
vt 0.2676 0.7486 0.0000
vt 0.3847 0.9138 0.0000
vt 0.6661 0.2889 0.0000
vt 0.6757 0.0867 0.0000
vt 0.7928 0.2519 0.0000
vt 0.6250 0.9678 0.0000
vt 0.6244 0.7594 0.0000
vt 0.7534 0.9231 0.0000
vt 0.5068 0.4744 0.0000
vt 0.5061 0.2660 0.0000
vt 0.6352 0.4297 0.0000
vt 0.2219 0.7442 0.0000
vt 0.2212 0.5357 0.0000
vt 0.3502 0.6995 0.0000
vt 0.5098 0.2769 0.0000
vt 0.5091 0.0684 0.0000
vt 0.6381 0.2322 0.0000
vt 0.1837 0.2758 0.0000
vt 0.1761 0.0711 0.0000
vt 0.3083 0.2276 0.0000
vt 0.0523 0.5192 0.0000
vt 0.0448 0.3145 0.0000
vt 0.1769 0.4710 0.0000
vt 0.3559 0.4654 0.0000
vt 0.3483 0.2608 0.0000
vt 0.4804 0.4172 0.0000
# 63 texture coords

o Object001
g Object001
usemtl Flag_OBJ_Material__2
s 1
f 146/99/133 147/100/133 148/101/133 
f 149/102/133 150/103/133 151/104/133 
f 152/105/133 153/106/133 154/107/133 
f 155/108/133 156/109/133 157/110/133 
f 158/111/133 159/112/133 160/113/133 
f 161/114/133 162/115/133 163/116/133 
f 164/117/133 165/118/133 166/119/133 
f 167/120/133 168/121/133 169/122/133 
f 170/123/133 171/124/133 172/125/133 
f 173/126/133 174/127/133 175/128/133 
f 176/129/133 177/130/133 178/131/133 
f 179/132/133 180/133/133 181/134/133 
f 182/135/133 183/136/133 184/137/133 
f 185/138/133 186/139/133 187/140/133 
f 188/141/133 189/142/133 190/143/133 
f 191/144/133 192/145/133 193/146/133 
f 194/147/133 195/148/133 196/149/133 
f 197/150/133 198/151/133 199/152/133 
f 200/153/133 201/154/133 202/155/133 
f 203/156/133 204/157/133 205/158/133 
f 206/159/133 207/160/133 208/161/133 
f 146/99/134 148/101/134 147/100/134 
f 149/102/134 151/104/134 150/103/134 
f 152/105/134 154/107/134 153/106/134 
f 155/108/134 157/110/134 156/109/134 
f 158/111/134 160/113/134 159/112/134 
f 161/114/134 163/116/134 162/115/134 
f 164/117/134 166/119/134 165/118/134 
f 167/120/134 169/122/134 168/121/134 
f 170/123/134 172/125/134 171/124/134 
f 173/126/134 175/128/134 174/127/134 
f 176/129/134 178/131/134 177/130/134 
f 179/132/134 181/134/134 180/133/134 
f 182/135/134 184/137/134 183/136/134 
f 185/138/134 187/140/134 186/139/134 
f 188/141/134 190/143/134 189/142/134 
f 191/144/134 193/146/134 192/145/134 
f 194/147/134 196/149/134 195/148/134 
f 197/150/134 199/152/134 198/151/134 
f 200/153/134 202/155/134 201/154/134 
f 203/156/134 205/158/134 204/157/134 
f 206/159/134 208/161/134 207/160/134 
# 0 polygons - 42 triangles

