# 3ds Max Wavefront OBJ Exporter v0.97b - (c)2007 guruware
# File Created: 17.12.2017 18:26:48

mtllib bottle_LP].mtl

#
# object bottle
#

v  8.2301 1.2259 -15.4613
v  8.2334 1.2259 -15.4527
v  8.2577 1.2043 -15.4540
v  8.2490 1.2043 -15.4766
v  8.2224 1.2259 -15.4663
v  8.2286 1.2043 -15.4898
v  8.2132 1.2259 -15.4658
v  8.2045 1.2043 -15.4885
v  8.2061 1.2259 -15.4600
v  8.1857 1.2043 -15.4732
v  8.2037 1.2259 -15.4511
v  8.1794 1.2043 -15.4498
v  8.2070 1.2259 -15.4425
v  8.1881 1.2043 -15.4272
v  8.2147 1.2259 -15.4376
v  8.2085 1.2043 -15.4140
v  8.2239 1.2259 -15.4380
v  8.2327 1.2043 -15.4153
v  8.2310 1.2259 -15.4438
v  8.2515 1.2043 -15.4306
v  8.2577 1.1788 -15.4540
v  8.2490 1.1788 -15.4766
v  8.2286 1.1788 -15.4898
v  8.2045 1.1788 -15.4885
v  8.1857 1.1788 -15.4732
v  8.1794 1.1788 -15.4498
v  8.1881 1.1788 -15.4272
v  8.2085 1.1788 -15.4140
v  8.2327 1.1788 -15.4153
v  8.2515 1.1788 -15.4306
v  8.2428 1.1582 -15.4532
v  8.2374 1.1582 -15.4672
v  8.2248 1.1582 -15.4753
v  8.2098 1.1582 -15.4745
v  8.1982 1.1582 -15.4651
v  8.1944 1.1582 -15.4506
v  8.1998 1.1582 -15.4366
v  8.2123 1.1582 -15.4285
v  8.2273 1.1582 -15.4293
v  8.2389 1.1582 -15.4387
v  8.2301 1.2654 -15.4613
v  8.2334 1.2654 -15.4527
v  8.2224 1.2654 -15.4663
v  8.2132 1.2654 -15.4658
v  8.2061 1.2654 -15.4600
v  8.2037 1.2654 -15.4511
v  8.2070 1.2654 -15.4425
v  8.2147 1.2654 -15.4376
v  8.2239 1.2654 -15.4380
v  8.2310 1.2654 -15.4438
v  8.2354 1.2742 -15.4656
v  8.2403 1.2742 -15.4531
v  8.2242 1.2742 -15.4729
v  8.2107 1.2742 -15.4722
v  8.2003 1.2742 -15.4637
v  8.1968 1.2742 -15.4507
v  8.2017 1.2742 -15.4382
v  8.2130 1.2742 -15.4309
v  8.2264 1.2742 -15.4316
v  8.2368 1.2742 -15.4401
v  8.2354 1.2781 -15.4656
v  8.2403 1.2781 -15.4531
v  8.2242 1.2781 -15.4729
v  8.2107 1.2781 -15.4722
v  8.2003 1.2781 -15.4637
v  8.1968 1.2781 -15.4507
v  8.2017 1.2781 -15.4382
v  8.2130 1.2781 -15.4309
v  8.2264 1.2781 -15.4316
v  8.2368 1.2781 -15.4401
v  8.2284 1.2781 -15.4599
v  8.2312 1.2781 -15.4526
v  8.2218 1.2781 -15.4642
v  8.2140 1.2781 -15.4637
v  8.2079 1.2781 -15.4588
v  8.2059 1.2781 -15.4512
v  8.2087 1.2781 -15.4439
v  8.2153 1.2781 -15.4397
v  8.2231 1.2781 -15.4401
v  8.2292 1.2781 -15.4450
v  8.2310 1.2919 -15.4620
v  8.2346 1.2919 -15.4528
v  8.2227 1.2919 -15.4674
v  8.2128 1.2919 -15.4669
v  8.2051 1.2919 -15.4606
v  8.2025 1.2919 -15.4510
v  8.2061 1.2919 -15.4418
v  8.2144 1.2919 -15.4364
v  8.2243 1.2919 -15.4369
v  8.2320 1.2919 -15.4432
v  8.2315 1.3058 -15.4624
v  8.2352 1.3058 -15.4528
v  8.2229 1.3058 -15.4680
v  8.2126 1.3058 -15.4675
v  8.2045 1.3058 -15.4610
v  8.2019 1.3058 -15.4510
v  8.2056 1.3058 -15.4414
v  8.2143 1.3058 -15.4358
v  8.2246 1.3058 -15.4363
v  8.2326 1.3058 -15.4428
v  8.2186 1.1503 -15.4519
# 101 vertices

vn 0.6957 0.4434 -0.5651
vn 0.8950 0.4434 -0.0482
vn 0.9227 0.3824 -0.0497
vn 0.7172 0.3824 -0.5826
vn 0.2307 0.4434 -0.8661
vn 0.2378 0.3824 -0.8929
vn -0.3225 0.4434 -0.8363
vn -0.3324 0.3824 -0.8621
vn -0.7524 0.4434 -0.4870
vn -0.7757 0.3824 -0.5021
vn -0.8950 0.4434 0.0482
vn -0.9227 0.3824 0.0497
vn -0.6957 0.4434 0.5651
vn -0.7172 0.3824 0.5826
vn -0.2307 0.4434 0.8661
vn -0.2378 0.3824 0.8929
vn 0.3224 0.4434 0.8363
vn 0.3324 0.3824 0.8621
vn 0.7524 0.4434 0.4871
vn 0.7757 0.3824 0.5021
vn 0.9549 -0.2925 -0.0515
vn 0.7423 -0.2925 -0.6029
vn 0.2461 -0.2925 -0.9241
vn -0.3440 -0.2925 -0.8922
vn -0.8028 -0.2925 -0.5196
vn -0.9549 -0.2925 0.0515
vn -0.7423 -0.2925 0.6029
vn -0.2461 -0.2925 0.9241
vn 0.3440 -0.2925 0.8922
vn 0.8028 -0.2925 0.5196
vn 0.6243 -0.7804 -0.0337
vn 0.4037 -0.8541 -0.3279
vn 0.1609 -0.7804 -0.6042
vn -0.1871 -0.8541 -0.4852
vn -0.5249 -0.7804 -0.3397
vn -0.5193 -0.8541 0.0280
vn -0.4853 -0.7804 0.3942
vn -0.1338 -0.8541 0.5025
vn 0.2249 -0.7804 0.5834
vn 0.4366 -0.8541 0.2826
vn 0.7275 -0.3486 -0.5909
vn 0.9359 -0.3486 -0.0504
vn 0.2412 -0.3486 -0.9057
vn -0.3372 -0.3486 -0.8745
vn -0.7868 -0.3486 -0.5093
vn -0.9359 -0.3486 0.0504
vn -0.7275 -0.3486 0.5909
vn -0.2412 -0.3486 0.9057
vn 0.3372 -0.3486 0.8745
vn 0.7868 -0.3486 0.5093
vn 0.7381 -0.3096 -0.5995
vn 0.9495 -0.3096 -0.0512
vn 0.2447 -0.3096 -0.9188
vn -0.3421 -0.3096 -0.8872
vn -0.7982 -0.3096 -0.5167
vn -0.9495 -0.3097 0.0512
vn -0.7381 -0.3096 0.5995
vn -0.2447 -0.3096 0.9188
vn 0.3421 -0.3096 0.8872
vn 0.7982 -0.3096 0.5167
vn 0.5947 0.6426 -0.4831
vn 0.7651 0.6426 -0.0412
vn 0.1972 0.6426 -0.7404
vn -0.2757 0.6426 -0.7149
vn -0.6432 0.6426 -0.4163
vn -0.7651 0.6426 0.0412
vn -0.5947 0.6426 0.4831
vn -0.1972 0.6426 0.7404
vn 0.2757 0.6426 0.7149
vn 0.6432 0.6426 0.4163
vn 0.5505 0.7051 -0.4471
vn 0.7081 0.7050 -0.0382
vn 0.1825 0.7050 -0.6853
vn -0.2551 0.7050 -0.6617
vn -0.5953 0.7050 -0.3854
vn -0.7081 0.7050 0.0382
vn -0.5505 0.7050 0.4471
vn -0.1825 0.7050 0.6853
vn 0.2551 0.7050 0.6617
vn 0.5953 0.7050 0.3853
vn 0.7686 -0.1395 -0.6243
vn 0.9888 -0.1395 -0.0533
vn 0.2549 -0.1395 -0.9569
vn -0.3562 -0.1395 -0.9239
vn -0.8313 -0.1395 -0.5381
vn -0.9888 -0.1395 0.0533
vn -0.7686 -0.1395 0.6243
vn -0.2549 -0.1395 0.9569
vn 0.3562 -0.1395 0.9239
vn 0.8313 -0.1395 0.5381
vn 0.6054 0.6259 -0.4917
vn 0.7788 0.6259 -0.0420
vn 0.2007 0.6259 -0.7536
vn -0.2806 0.6259 -0.7277
vn -0.6547 0.6259 -0.4238
vn -0.7788 0.6259 0.0420
vn -0.6054 0.6259 0.4917
vn -0.2007 0.6259 0.7536
vn 0.2806 0.6259 0.7277
vn 0.6547 0.6259 0.4238
vn 0.0000 -1.0000 -0.0000
# 101 vertex normals

vt 0.5347 0.5075 0.0000
vt 0.5253 0.5053 0.0000
vt 0.5253 0.4713 0.0000
vt 0.5500 0.4771 0.0000
vt 0.5420 0.5137 0.0000
vt 0.5694 0.4934 0.0000
vt 0.5458 0.5226 0.0000
vt 0.5794 0.5167 0.0000
vt 0.5452 0.5322 0.0000
vt 0.5778 0.5420 0.0000
vt 0.5404 0.5405 0.0000
vt 0.5651 0.5639 0.0000
vt 0.5054 0.5322 0.0000
vt 0.5103 0.5405 0.0000
vt 0.4856 0.5639 0.0000
vt 0.4728 0.5420 0.0000
vt 0.5048 0.5226 0.0000
vt 0.4713 0.5167 0.0000
vt 0.5086 0.5137 0.0000
vt 0.4812 0.4934 0.0000
vt 0.5160 0.5075 0.0000
vt 0.5006 0.4771 0.0000
vt 0.4762 0.1972 0.0000
vt 0.4762 0.1718 0.0000
vt 0.5028 0.1718 0.0000
vt 0.5028 0.1972 0.0000
vt 0.4762 0.2225 0.0000
vt 0.5028 0.2225 0.0000
vt 0.4762 0.2479 0.0000
vt 0.5028 0.2479 0.0000
vt 0.4762 0.2732 0.0000
vt 0.5028 0.2732 0.0000
vt 0.4762 0.2986 0.0000
vt 0.5028 0.2986 0.0000
vt 0.4762 0.0704 0.0000
vt 0.4762 0.0451 0.0000
vt 0.5028 0.0451 0.0000
vt 0.5028 0.0704 0.0000
vt 0.4762 0.0958 0.0000
vt 0.5028 0.0958 0.0000
vt 0.4762 0.1211 0.0000
vt 0.5028 0.1211 0.0000
vt 0.4762 0.1465 0.0000
vt 0.5028 0.1465 0.0000
vt 0.4772 0.3090 0.0000
vt 0.5022 0.3047 0.0000
vt 0.5018 0.3314 0.0000
vt 0.4864 0.3340 0.0000
vt 0.4554 0.3220 0.0000
vt 0.4729 0.3420 0.0000
vt 0.4397 0.3419 0.0000
vt 0.4632 0.3543 0.0000
vt 0.4321 0.3660 0.0000
vt 0.4585 0.3693 0.0000
vt 0.4336 0.3913 0.0000
vt 0.4595 0.3849 0.0000
vt 0.5708 0.3677 0.0000
vt 0.5686 0.3929 0.0000
vt 0.5429 0.3859 0.0000
vt 0.5443 0.3703 0.0000
vt 0.5638 0.3433 0.0000
vt 0.5399 0.3552 0.0000
vt 0.5485 0.3231 0.0000
vt 0.5305 0.3427 0.0000
vt 0.5270 0.3096 0.0000
vt 0.5172 0.3344 0.0000
vt 0.8141 0.9140 0.0000
vt 0.8076 0.8763 0.0000
vt 0.8199 0.8749 0.0000
vt 0.8214 0.9135 0.0000
vt 0.8070 0.9154 0.0000
vt 0.7956 0.8793 0.0000
vt 0.8001 0.9178 0.0000
vt 0.7840 0.8841 0.0000
vt 0.7935 0.9211 0.0000
vt 0.7733 0.8903 0.0000
vt 0.7871 0.9255 0.0000
vt 0.7643 0.8979 0.0000
vt 0.8498 0.9203 0.0000
vt 0.8660 0.8838 0.0000
vt 0.8748 0.8886 0.0000
vt 0.8581 0.9242 0.0000
vt 0.8428 0.9174 0.0000
vt 0.8554 0.8797 0.0000
vt 0.8358 0.9153 0.0000
vt 0.8441 0.8768 0.0000
vt 0.8287 0.9139 0.0000
vt 0.8321 0.8751 0.0000
vt 0.8054 0.8634 0.0000
vt 0.8194 0.8620 0.0000
vt 0.7915 0.8667 0.0000
vt 0.7781 0.8720 0.0000
vt 0.7655 0.8792 0.0000
vt 0.7531 0.8890 0.0000
vt 0.8711 0.8737 0.0000
vt 0.8819 0.8805 0.0000
vt 0.8593 0.8685 0.0000
vt 0.8467 0.8647 0.0000
vt 0.8333 0.8625 0.0000
vt 0.8048 0.8596 0.0000
vt 0.8193 0.8582 0.0000
vt 0.7904 0.8630 0.0000
vt 0.7765 0.8684 0.0000
vt 0.7634 0.8760 0.0000
vt 0.7505 0.8852 0.0000
vt 0.8727 0.8706 0.0000
vt 0.8840 0.8771 0.0000
vt 0.8606 0.8652 0.0000
vt 0.8476 0.8612 0.0000
vt 0.8337 0.8588 0.0000
vt 0.9419 0.0492 0.0000
vt 0.9390 0.0402 0.0000
vt 0.9456 0.0354 0.0000
vt 0.9533 0.0409 0.0000
vt 0.9279 0.0492 0.0000
vt 0.9308 0.0402 0.0000
vt 0.9165 0.0409 0.0000
vt 0.9242 0.0354 0.0000
vt 0.9121 0.0276 0.0000
vt 0.9216 0.0276 0.0000
vt 0.9165 0.0142 0.0000
vt 0.9242 0.0198 0.0000
vt 0.9279 0.0059 0.0000
vt 0.9308 0.0149 0.0000
vt 0.9419 0.0059 0.0000
vt 0.9390 0.0149 0.0000
vt 0.9533 0.0142 0.0000
vt 0.9456 0.0198 0.0000
vt 0.9577 0.0276 0.0000
vt 0.9482 0.0276 0.0000
vt 0.6132 0.4278 0.0000
vt 0.5983 0.4278 0.0000
vt 0.5988 0.4179 0.0000
vt 0.6135 0.4193 0.0000
vt 0.6136 0.4364 0.0000
vt 0.5987 0.4376 0.0000
vt 0.6148 0.4450 0.0000
vt 0.5999 0.4475 0.0000
vt 0.6167 0.4535 0.0000
vt 0.6018 0.4573 0.0000
vt 0.6194 0.4618 0.0000
vt 0.6046 0.4673 0.0000
vt 0.6224 0.3869 0.0000
vt 0.6094 0.3801 0.0000
vt 0.6145 0.3711 0.0000
vt 0.6267 0.3798 0.0000
vt 0.6191 0.3945 0.0000
vt 0.6053 0.3892 0.0000
vt 0.6165 0.4026 0.0000
vt 0.6023 0.3986 0.0000
vt 0.6146 0.4109 0.0000
vt 0.6001 0.4082 0.0000
vt 0.5839 0.4277 0.0000
vt 0.5844 0.4166 0.0000
vt 0.5844 0.4387 0.0000
vt 0.5857 0.4497 0.0000
vt 0.5879 0.4605 0.0000
vt 0.5905 0.4710 0.0000
vt 0.5960 0.3736 0.0000
vt 0.6013 0.3635 0.0000
vt 0.5917 0.3840 0.0000
vt 0.5883 0.3947 0.0000
vt 0.5859 0.4056 0.0000
vt 0.3782 0.0650 0.0000
vt 0.3832 0.0497 0.0000
vt 0.4042 0.0650 0.0000
vt 0.3832 0.0803 0.0000
vt 0.3962 0.0898 0.0000
vt 0.4123 0.0898 0.0000
vt 0.4253 0.0803 0.0000
vt 0.4303 0.0650 0.0000
vt 0.4253 0.0497 0.0000
vt 0.4123 0.0402 0.0000
vt 0.3962 0.0402 0.0000
vt 0.5714 0.0465 0.0000
vt 0.5398 0.0568 0.0000
vt 0.5432 0.0465 0.0000
vt 0.5627 0.0402 0.0000
vt 0.5519 0.0402 0.0000
vt 0.5748 0.0568 0.0000
vt 0.5432 0.0671 0.0000
vt 0.5714 0.0671 0.0000
vt 0.5519 0.0734 0.0000
vt 0.5627 0.0734 0.0000
# 184 texture coords

o bottle
g bottle
usemtl bottle_wire_134006006
s off
f 1/1/1 2/2/2 3/3/3 4/4/4 
f 5/5/5 1/1/1 4/4/4 6/6/6 
f 7/7/7 5/5/5 6/6/6 8/8/8 
f 9/9/9 7/7/7 8/8/8 10/10/10 
f 11/11/11 9/9/9 10/10/10 12/12/12 
f 13/13/13 11/14/11 12/15/12 14/16/14 
f 15/17/15 13/13/13 14/16/14 16/18/16 
f 17/19/17 15/17/15 16/18/16 18/20/18 
f 19/21/19 17/19/17 18/20/18 20/22/20 
f 2/2/2 19/21/19 20/22/20 3/3/3 
f 4/23/4 3/24/3 21/25/21 22/26/22 
f 6/27/6 4/23/4 22/26/22 23/28/23 
f 8/29/8 6/27/6 23/28/23 24/30/24 
f 10/31/10 8/29/8 24/30/24 25/32/25 
f 12/33/12 10/31/10 25/32/25 26/34/26 
f 14/35/14 12/36/12 26/37/26 27/38/27 
f 16/39/16 14/35/14 27/38/27 28/40/28 
f 18/41/18 16/39/16 28/40/28 29/42/29 
f 20/43/20 18/41/18 29/42/29 30/44/30 
f 3/24/3 20/43/20 30/44/30 21/25/21 
f 22/45/22 21/46/21 31/47/31 32/48/32 
f 23/49/23 22/45/22 32/48/32 33/50/33 
f 24/51/24 23/49/23 33/50/33 34/52/34 
f 25/53/25 24/51/24 34/52/34 35/54/35 
f 26/55/26 25/53/25 35/54/35 36/56/36 
f 27/57/27 26/58/26 36/59/36 37/60/37 
f 28/61/28 27/57/27 37/60/37 38/62/38 
f 29/63/29 28/61/28 38/62/38 39/64/39 
f 30/65/30 29/63/29 39/64/39 40/66/40 
f 21/46/21 30/65/30 40/66/40 31/47/31 
f 1/67/1 41/68/41 42/69/42 2/70/2 
f 5/71/5 43/72/43 41/68/41 1/67/1 
f 7/73/7 44/74/44 43/72/43 5/71/5 
f 9/75/9 45/76/45 44/74/44 7/73/7 
f 11/77/11 46/78/46 45/76/45 9/75/9 
f 13/79/13 47/80/47 46/81/46 11/82/11 
f 15/83/15 48/84/48 47/80/47 13/79/13 
f 17/85/17 49/86/49 48/84/48 15/83/15 
f 19/87/19 50/88/50 49/86/49 17/85/17 
f 2/70/2 42/69/42 50/88/50 19/87/19 
f 41/68/41 51/89/51 52/90/52 42/69/42 
f 43/72/43 53/91/53 51/89/51 41/68/41 
f 44/74/44 54/92/54 53/91/53 43/72/43 
f 45/76/45 55/93/55 54/92/54 44/74/44 
f 46/78/46 56/94/56 55/93/55 45/76/45 
f 47/80/47 57/95/57 56/96/56 46/81/46 
f 48/84/48 58/97/58 57/95/57 47/80/47 
f 49/86/49 59/98/59 58/97/58 48/84/48 
f 50/88/50 60/99/60 59/98/59 49/86/49 
f 42/69/42 52/90/52 60/99/60 50/88/50 
f 51/89/51 61/100/61 62/101/62 52/90/52 
f 53/91/53 63/102/63 61/100/61 51/89/51 
f 54/92/54 64/103/64 63/102/63 53/91/53 
f 55/93/55 65/104/65 64/103/64 54/92/54 
f 56/94/56 66/105/66 65/104/65 55/93/55 
f 57/95/57 67/106/67 66/107/66 56/96/56 
f 58/97/58 68/108/68 67/106/67 57/95/57 
f 59/98/59 69/109/69 68/108/68 58/97/58 
f 60/99/60 70/110/70 69/109/69 59/98/59 
f 52/90/52 62/101/62 70/110/70 60/99/60 
f 61/111/61 71/112/71 72/113/72 62/114/62 
f 63/115/63 73/116/73 71/112/71 61/111/61 
f 64/117/64 74/118/74 73/116/73 63/115/63 
f 65/119/65 75/120/75 74/118/74 64/117/64 
f 66/121/66 76/122/76 75/120/75 65/119/65 
f 67/123/67 77/124/77 76/122/76 66/121/66 
f 68/125/68 78/126/78 77/124/77 67/123/67 
f 69/127/69 79/128/79 78/126/78 68/125/68 
f 70/129/70 80/130/80 79/128/79 69/127/69 
f 62/114/62 72/113/72 80/130/80 70/129/70 
f 71/131/71 81/132/81 82/133/82 72/134/72 
f 73/135/73 83/136/83 81/132/81 71/131/71 
f 74/137/74 84/138/84 83/136/83 73/135/73 
f 75/139/75 85/140/85 84/138/84 74/137/74 
f 76/141/76 86/142/86 85/140/85 75/139/75 
f 77/143/77 87/144/87 86/145/86 76/146/76 
f 78/147/78 88/148/88 87/144/87 77/143/77 
f 79/149/79 89/150/89 88/148/88 78/147/78 
f 80/151/80 90/152/90 89/150/89 79/149/79 
f 72/134/72 82/133/82 90/152/90 80/151/80 
f 81/132/81 91/153/91 92/154/92 82/133/82 
f 83/136/83 93/155/93 91/153/91 81/132/81 
f 84/138/84 94/156/94 93/155/93 83/136/83 
f 85/140/85 95/157/95 94/156/94 84/138/84 
f 86/142/86 96/158/96 95/157/95 85/140/85 
f 87/144/87 97/159/97 96/160/96 86/145/86 
f 88/148/88 98/161/98 97/159/97 87/144/87 
f 89/150/89 99/162/99 98/161/98 88/148/88 
f 90/152/90 100/163/100 99/162/99 89/150/89 
f 82/133/82 92/154/92 100/163/100 90/152/90 
f 32/164/32 31/165/31 101/166/101 33/167/33 
f 34/168/34 33/167/33 101/166/101 35/169/35 
f 36/170/36 35/169/35 101/166/101 37/171/37 
f 38/172/38 37/171/37 101/166/101 39/173/39 
f 40/174/40 39/173/39 101/166/101 31/165/31 
f 96/175/96 91/176/91 93/177/93 95/178/95 
f 93/177/93 94/179/94 95/178/95 
f 97/180/97 92/181/92 91/176/91 96/175/96 
f 98/182/98 100/183/100 92/181/92 97/180/97 
f 98/182/98 99/184/99 100/183/100 
# 98 polygons - 2 triangles

