# 3ds Max Wavefront OBJ Exporter v0.97b - (c)2007 guruware
# File Created: 17.12.2017 20:12:54

mtllib game_cases_LP.mtl

#
# object nintendo_game_cude_game_case_size
#

v  -9.7351 1.4928 -23.4061
v  -9.7351 1.6622 -23.4061
v  -9.7351 1.6622 -23.5277
v  -9.7351 1.4928 -23.5277
v  -9.7158 1.4928 -23.4061
v  -9.7158 1.4928 -23.5277
v  -9.7158 1.6622 -23.5277
v  -9.7158 1.6622 -23.4061
# 8 vertices

vn -0.5774 -0.5774 0.5774
vn -0.5774 0.5774 0.5774
vn -0.5774 0.5774 -0.5774
vn -0.5774 -0.5774 -0.5774
vn 0.5774 -0.5774 0.5774
vn 0.5774 -0.5774 -0.5774
vn 0.5774 0.5774 -0.5774
vn 0.5774 0.5774 0.5774
# 8 vertex normals

vt 1.0000 0.0000 0.0000
vt 1.0000 1.0000 0.0000
vt 0.0000 1.0000 0.0000
vt 0.0000 0.0000 0.0000
# 4 texture coords

o nintendo_game_cude_game_case_size
g nintendo_game_cude_game_case_size
usemtl wire_027177148
s 2
f 1/1/1 2/2/2 3/3/3 4/4/4 
s 4
f 5/4/5 6/1/6 7/2/7 8/3/8 
s 8
f 1/4/1 4/1/4 6/2/6 5/3/5 
s 16
f 4/4/4 3/1/3 7/2/7 6/3/6 
s 32
f 3/4/3 2/1/2 8/2/8 7/3/7 
s 64
f 2/4/2 1/1/1 5/2/5 8/3/8 
# 6 polygons

#
# object nintendo_ds_games
#

v  -9.7351 1.5007 -22.8667
v  -9.7351 1.6542 -22.8667
v  -9.7351 1.6542 -23.0054
v  -9.7351 1.5007 -23.0054
v  -9.7180 1.5007 -22.8667
v  -9.7180 1.5007 -23.0054
v  -9.7180 1.6542 -23.0054
v  -9.7180 1.6542 -22.8667
# 8 vertices

vn -0.5774 -0.5774 0.5774
vn -0.5774 0.5774 0.5774
vn -0.5774 0.5774 -0.5774
vn -0.5774 -0.5774 -0.5774
vn 0.5774 -0.5774 0.5774
vn 0.5774 -0.5774 -0.5774
vn 0.5774 0.5774 -0.5774
vn 0.5774 0.5774 0.5774
# 8 vertex normals

vt 1.0000 0.0000 0.0000
vt 1.0000 1.0000 0.0000
vt 0.0000 1.0000 0.0000
vt 0.0000 0.0000 0.0000
# 4 texture coords

o nintendo_ds_games
g nintendo_ds_games
usemtl wire_027177148
s 2
f 9/5/9 10/6/10 11/7/11 12/8/12 
s 4
f 13/8/13 14/5/14 15/6/15 16/7/16 
s 8
f 9/8/9 12/5/12 14/6/14 13/7/13 
s 16
f 12/8/12 11/5/11 15/6/15 14/7/14 
s 32
f 11/8/11 10/5/10 16/6/16 15/7/15 
s 64
f 10/8/10 9/5/9 13/6/13 16/7/16 
# 6 polygons

#
# object nintendo_switch
#

v  -9.7351 1.4808 -23.1615
v  -9.7351 1.6741 -23.1615
v  -9.7351 1.6741 -23.2797
v  -9.7351 1.4808 -23.2797
v  -9.7237 1.4808 -23.1615
v  -9.7237 1.4808 -23.2797
v  -9.7237 1.6741 -23.2797
v  -9.7237 1.6741 -23.1615
# 8 vertices

vn -0.5774 -0.5774 0.5774
vn -0.5774 0.5774 0.5774
vn -0.5774 0.5774 -0.5774
vn -0.5774 -0.5774 -0.5774
vn 0.5774 -0.5774 0.5774
vn 0.5774 -0.5774 -0.5774
vn 0.5774 0.5774 -0.5774
vn 0.5774 0.5774 0.5774
# 8 vertex normals

vt 1.0000 0.0000 0.0000
vt 1.0000 1.0000 0.0000
vt 0.0000 1.0000 0.0000
vt 0.0000 0.0000 0.0000
# 4 texture coords

o nintendo_switch
g nintendo_switch
usemtl wire_027177148
s 2
f 17/9/17 18/10/18 19/11/19 20/12/20 
s 4
f 21/12/21 22/9/22 23/10/23 24/11/24 
s 8
f 17/12/17 20/9/20 22/10/22 21/11/21 
s 16
f 20/12/20 19/9/19 23/10/23 22/11/22 
s 32
f 19/12/19 18/9/18 24/10/24 23/11/23 
s 64
f 18/12/18 17/9/17 21/10/21 24/11/24 
# 6 polygons

#
# object playstation
#

v  -9.7351 1.5007 -23.6974
v  -9.7351 1.6542 -23.6974
v  -9.7351 1.6542 -23.8168
v  -9.7351 1.5007 -23.8168
v  -9.7214 1.5007 -23.6974
v  -9.7214 1.5007 -23.8168
v  -9.7214 1.6542 -23.8168
v  -9.7214 1.6542 -23.6974
v  -9.7283 1.5007 -23.8168
v  -9.7283 1.5007 -23.6974
v  -9.7283 1.6542 -23.8168
v  -9.7283 1.6542 -23.6974
v  -9.7322 1.6139 -23.6997
v  -9.7322 1.5410 -23.6997
v  -9.7283 1.5410 -23.6997
v  -9.7243 1.5410 -23.6997
v  -9.7243 1.6139 -23.6997
v  -9.7283 1.6139 -23.6997
v  -9.7322 1.5410 -23.6974
v  -9.7322 1.6139 -23.6974
v  -9.7283 1.5410 -23.6974
v  -9.7243 1.5410 -23.6974
v  -9.7243 1.6139 -23.6974
v  -9.7283 1.6139 -23.6974
v  -9.7352 1.5007 -23.6974
v  -9.7352 1.6542 -23.6974
v  -9.7352 1.6542 -23.8169
v  -9.7352 1.5007 -23.8169
v  -9.7213 1.5007 -23.6974
v  -9.7214 1.5007 -23.8169
v  -9.7214 1.6542 -23.8169
v  -9.7213 1.6542 -23.6974
v  -9.7283 1.6542 -23.8169
v  -9.7283 1.5007 -23.8169
# 34 vertices

vn -0.5774 -0.5774 0.5774
vn -0.5774 0.5774 0.5774
vn -0.5774 0.5774 -0.5774
vn -0.5774 -0.5774 -0.5774
vn 0.5774 -0.5774 0.5774
vn 0.5774 -0.5774 -0.5774
vn 0.5774 0.5774 -0.5774
vn 0.5774 0.5774 0.5774
vn -0.0000 -0.7071 -0.7071
vn -0.0000 -0.7071 0.7071
vn 0.0000 0.7071 -0.7071
vn 0.0000 0.7071 0.7071
vn 0.3015 0.3015 0.9045
vn 0.3015 -0.3015 0.9045
vn -0.3015 0.3015 0.9045
vn -0.3015 -0.3015 0.9045
vn -0.5774 -0.5774 0.5773
vn -0.5774 0.5774 0.5773
vn -0.5784 0.5777 -0.5759
vn -0.5784 -0.5777 -0.5759
vn 0.5774 -0.5774 0.5773
vn 0.5784 -0.5777 -0.5759
vn 0.5784 0.5777 -0.5759
vn 0.5774 0.5774 0.5773
vn -0.0000 0.7060 -0.7082
vn -0.0000 -0.7060 -0.7082
vn 0.0000 1.0000 -0.0000
vn -0.0000 -1.0000 0.0000
# 28 vertex normals

vt 1.0000 0.0000 0.0000
vt 1.0000 1.0000 0.0000
vt 0.0000 1.0000 0.0000
vt 0.0000 0.0000 0.0000
vt 1.0000 0.5000 0.0000
vt 0.0000 0.5000 0.0000
# 6 texture coords

o playstation
g playstation
usemtl wire_027177148
s 2
f 25/13/25 26/14/26 27/15/27 28/16/28 
s 4
f 29/16/29 30/13/30 31/14/31 32/15/32 
s 8
f 25/16/25 28/13/28 33/17/33 34/18/34 
s 16
f 28/16/28 27/13/27 35/17/35 33/18/33 
s 32
f 27/16/27 26/13/26 36/17/36 35/18/35 
s 64
f 37/16/29 38/13/32 39/17/36 40/14/26 41/15/25 42/18/34 
s 8
f 33/17/33 30/14/30 29/15/29 34/18/34 
s 16
f 35/17/35 31/14/31 30/15/30 33/18/33 
s 32
f 36/17/36 32/14/32 31/15/31 35/18/35 
s off
f 26/16/26 25/13/25 43/13/37 44/16/38 
f 25/13/25 34/17/34 45/17/36 43/13/37 
f 34/17/34 29/14/29 46/14/39 45/17/36 
f 29/14/29 32/15/32 47/15/40 46/14/39 
f 32/15/32 36/18/36 48/18/34 47/15/40 
f 36/18/36 26/16/26 44/16/38 48/18/34 
f 44/16/38 43/13/37 38/13/32 37/16/29 
f 43/13/37 45/17/36 39/17/36 38/13/32 
f 45/17/36 46/14/39 40/14/26 39/17/36 
f 46/14/39 47/15/40 41/15/25 40/14/26 
f 47/15/40 48/18/34 42/18/34 41/15/25 
f 48/18/34 44/16/38 37/16/29 42/18/34 
s 2
f 49/13/41 50/14/42 51/15/43 52/16/44 
s 4
f 53/16/45 54/13/46 55/14/47 56/15/48 
s 16
f 52/16/44 51/13/43 57/17/49 58/18/50 
f 57/17/49 55/14/47 54/15/46 58/18/50 
s off
f 25/13/34 26/14/36 50/14/42 49/13/41 
f 26/14/36 27/15/51 51/15/43 50/14/42 
f 27/13/51 35/17/51 57/17/49 51/13/43 
f 35/17/51 31/14/51 55/14/47 57/17/49 
f 31/14/51 32/15/36 56/15/48 55/14/47 
f 32/15/36 29/16/34 53/16/45 56/15/48 
f 29/16/34 30/13/52 54/13/46 53/16/45 
f 30/15/52 33/18/52 58/18/50 54/15/46 
f 33/18/52 28/16/52 52/16/44 58/18/50 
f 28/16/52 25/13/34 49/13/41 52/16/44 
# 35 polygons

